<svg width="200" height="142" viewBox="0 0 200 142" fill="none" xmlns="http://www.w3.org/2000/svg">
<g clip-path="url(#clip0)">
<path opacity="0.1" d="M66.4918 141.92C76.2316 141.92 84.1273 140.649 84.1273 139.081C84.1273 137.513 76.2316 136.242 66.4918 136.242C56.7519 136.242 48.8562 137.513 48.8562 139.081C48.8562 140.649 56.7519 141.92 66.4918 141.92Z" fill="#0984E3"/>
<path opacity="0.1" d="M162.356 142C174.51 142 184.362 140.729 184.362 139.161C184.362 137.593 174.51 136.322 162.356 136.322C150.202 136.322 140.35 137.593 140.35 139.161C140.35 140.729 150.202 142 162.356 142Z" fill="#0984E3"/>
<path opacity="0.1" d="M2.50488 61.3542H20.8734V86.4492H3.84962C3.80438 86.7068 3.76094 86.9663 3.71388 87.2257H20.8734V107.464C20.8427 107.455 20.8155 107.444 20.7866 107.433C20.3015 107.241 19.8201 107.038 19.3387 106.82L19.031 106.681C18.5483 106.452 18.0657 106.21 17.5831 105.955C17.4147 105.866 17.2464 105.773 17.0799 105.679C14.4005 104.175 11.9664 102.268 9.86208 100.026C9.80054 99.9664 9.74262 99.9029 9.68109 99.8448C9.38788 99.5255 9.10011 99.2026 8.82139 98.8725L8.51371 98.5096C8.18431 98.1051 7.86577 97.6896 7.55628 97.2688C7.51103 97.2071 7.46759 97.1454 7.42053 97.0873C6.16184 95.338 5.11673 93.4439 4.30752 91.4454C4.28219 91.3855 4.26047 91.3202 4.23694 91.264C3.98838 90.623 3.76818 89.9759 3.57633 89.3228C3.49307 89.0489 3.41344 88.7786 3.34466 88.4938C3.31933 88.4103 3.29761 88.3287 3.2777 88.247C2.24968 84.2251 2.12842 80.0471 2.12842 75.8982C2.12842 75.4138 2.12842 74.9276 2.12842 74.4469C2.12842 72.7688 2.14833 71.0798 2.17729 69.3927C2.17729 68.9555 2.19538 68.5201 2.20443 68.0811C2.22977 66.9672 2.26597 65.8533 2.31303 64.7394C2.32389 64.4292 2.33837 64.1208 2.35465 63.8124C2.35465 63.6346 2.3637 63.4568 2.3818 63.279C2.42524 62.6332 2.46144 61.9928 2.50488 61.3542Z" fill="#0984E3"/>
<path opacity="0.1" d="M20.8735 33.4128H10.7979C12.4357 30.8432 14.2252 28.374 16.1569 26.0184C17.6537 24.1752 19.2337 22.3792 20.8735 20.6485V33.4128Z" fill="#0984E3"/>
<path opacity="0.1" d="M20.8736 34.1893V60.5778H2.56299C2.56299 60.5016 2.57566 60.4236 2.58109 60.3474C2.59738 60.1387 2.61366 59.9301 2.63176 59.7233C2.65167 59.4802 2.67339 59.2353 2.69692 58.9976C2.72045 58.76 2.74579 58.4697 2.77294 58.2067C2.80008 57.9436 2.82542 57.677 2.85619 57.4139C2.88696 57.1509 2.91411 56.8878 2.94668 56.6266C2.97926 56.3653 3.00822 56.1005 3.04261 55.8392C3.06976 55.6215 3.09871 55.4057 3.12767 55.188C3.1693 54.8814 3.21274 54.573 3.2598 54.2682C3.2598 54.2228 3.27246 54.1757 3.2797 54.1321C3.61004 51.901 4.06015 49.6894 4.62807 47.5069C5.22255 45.2174 5.98167 42.9741 6.89948 40.7946C7.87495 38.5145 9.01708 36.3098 10.3166 34.1984L20.8736 34.1893Z" fill="#0984E3"/>
<path opacity="0.1" d="M25.2588 61.3524V86.4492H64.4918V61.3524H25.2588ZM25.2588 87.2239V108.776C25.4832 108.823 25.7058 108.868 25.9266 108.906C26.2271 108.965 26.5257 109.017 26.8316 109.062C26.8895 109.072 26.9492 109.081 27.0126 109.086C27.132 109.106 27.2551 109.122 27.3746 109.139C27.6768 109.18 27.9772 109.215 28.2795 109.242C28.4225 109.257 28.5673 109.269 28.7121 109.28L29.0614 109.307C29.2514 109.322 29.4396 109.333 29.626 109.338C29.7419 109.338 29.8577 109.349 29.9772 109.353C30.0677 109.353 30.1582 109.353 30.2523 109.353C30.3464 109.353 30.4803 109.353 30.5943 109.353C30.75 109.353 30.9056 109.353 31.0595 109.353H31.2676C31.4233 109.353 31.5789 109.353 31.7328 109.338H31.7436C31.8504 109.338 31.959 109.338 32.0676 109.324C32.0977 109.326 32.1279 109.326 32.1581 109.324C32.2486 109.324 32.3391 109.324 32.4259 109.311H32.4893L33.0956 109.264C33.2947 109.246 33.4956 109.222 33.6983 109.2L34.111 109.151C35.7898 108.916 37.4499 108.562 39.0791 108.092C42.7387 107.069 46.3187 105.637 49.9764 104.589C54.7057 103.237 59.9308 102.573 64.5008 104.226V87.2239H25.2588ZM64.4918 33.4128V0.00180715C60.1964 -0.0448387 55.9127 0.458731 51.7447 1.50029C41.8102 4.00199 32.8965 9.42808 25.2588 16.3581V33.411H27.2279V34.1857H25.2588V60.5778H64.4918V34.1875H35.3127V33.4128H64.4918ZM114.885 22.1271C112.427 22.04 109.983 21.2599 107.773 20.0553C103.547 17.7514 100.172 14.1938 96.4001 11.1914C88.5633 4.93808 78.8442 1.16467 68.8735 0.228575V33.4128H124.881L125.02 33.2659L114.885 22.1271ZM119.987 21.22L125.396 27.1704V19.6598C123.585 19.8848 121.997 20.42 119.994 21.2127L119.987 21.22ZM125.396 114.128V87.2239H113.869C113.838 87.1096 113.808 86.9935 113.771 86.8774C113.806 86.9935 113.835 87.1096 113.867 87.2239H68.8807V106.681C69.3079 106.998 69.7296 107.332 70.1477 107.671C70.5983 108.034 71.0436 108.417 71.4906 108.792L71.9413 109.166C72.1566 109.347 72.3738 109.529 72.5928 109.699C73.0272 110.052 73.4658 110.401 73.9086 110.744C74.1276 110.926 74.352 111.089 74.5746 111.259C78.1088 113.968 81.837 116.412 85.729 118.572C86.6014 119.056 87.4816 119.528 88.3696 119.989C88.9615 120.292 89.5569 120.593 90.1542 120.885C91.0519 121.324 91.9568 121.748 92.869 122.155C101.279 125.939 110.172 128.536 119.293 129.871C121.319 130.171 123.353 130.406 125.395 130.578V114.126H125.576L125.396 114.128ZM68.8807 34.1875V60.5778H125.404V34.1875H68.8807ZM68.8807 61.3524V86.4492H125.404V61.3524H68.8807ZM129.791 19.6272V28.0049L136.695 20.4109C134.408 20.0408 132.106 19.7765 129.791 19.6181V19.6272ZM129.791 61.3615V86.4492H184.766V61.3524L129.791 61.3615ZM184.565 116.119L184.759 87.2239H129.791V130.867C133.332 131.016 136.878 130.973 140.415 130.74H140.476C142.166 130.633 143.847 130.478 145.521 130.275H145.559C154.487 129.234 163.217 126.899 171.476 123.343L184.565 116.119ZM195.367 65.485C195.16 64.997 194.945 64.5126 194.726 64.0337C194.317 63.1266 193.884 62.245 193.439 61.3633H189.15V86.4492H199.995C199.989 79.345 198.196 72.0885 195.372 65.4759L195.367 65.485ZM189.15 87.2329V112.087C192.205 109.151 194.786 105.793 196.644 101.955C198.88 97.3323 199.902 92.327 199.985 87.2293L189.15 87.2329ZM189.15 54.0487V60.5796H193.037C191.861 58.3314 190.565 56.1482 189.155 54.0396L189.15 54.0487ZM151.866 24.5508C151.58 24.4419 151.294 24.3312 151.006 24.2242C147.971 23.1008 144.87 22.1665 141.72 21.4268L131.154 33.05L130.951 33.2659L131.087 33.4146H168.693C163.455 29.801 157.809 26.8225 151.871 24.5417L151.866 24.5508ZM169.795 34.1965H130.562L129.791 34.9041V60.5778H136.549H136.56H184.773V48.1418C180.412 42.8547 175.378 38.1633 169.8 34.1875L169.795 34.1965Z" fill="#0984E3"/>
<path opacity="0.1" d="M20.8736 47.4996V60.5778H2.56299C2.56299 60.5016 2.57566 60.4236 2.58109 60.3474C2.59738 60.1387 2.61366 59.9301 2.63176 59.7233C2.65167 59.4802 2.67339 59.2353 2.69692 58.9977C2.72045 58.76 2.74579 58.4697 2.77294 58.2067C2.80008 57.9436 2.82542 57.677 2.85619 57.4139C2.88696 57.1509 2.91411 56.8878 2.94668 56.6266C2.97926 56.3653 3.00822 56.1005 3.04261 55.8392C3.06976 55.6215 3.09871 55.4057 3.12767 55.188C3.1693 54.8814 3.21274 54.573 3.2598 54.2682C3.2598 54.2228 3.27246 54.1757 3.2797 54.1321C3.61004 51.901 4.06015 49.6894 4.62807 47.5069L20.8736 47.4996Z" fill="#0984E3"/>
<path opacity="0.1" d="M2.50488 61.3542H20.8734V86.4492H3.84962C3.80438 86.7068 3.76094 86.9663 3.71388 87.2257H20.8734V107.464C20.8427 107.455 20.8155 107.444 20.7866 107.433C20.3015 107.241 19.8201 107.038 19.3387 106.82L19.031 106.681C18.5483 106.452 18.0657 106.21 17.5831 105.955C17.4147 105.866 17.2464 105.773 17.0799 105.679C14.4005 104.175 11.9664 102.268 9.86208 100.026C9.80054 99.9664 9.74262 99.9029 9.68109 99.8448C9.38788 99.5255 9.10011 99.2026 8.82139 98.8725L8.51371 98.5096C8.18431 98.1051 7.86577 97.6896 7.55628 97.2688C7.51103 97.2071 7.46759 97.1454 7.42053 97.0873C6.16184 95.338 5.11673 93.4439 4.30752 91.4454C4.28219 91.3855 4.26047 91.3202 4.23694 91.264C3.98838 90.623 3.76818 89.9759 3.57633 89.3228C3.49307 89.0489 3.41344 88.7786 3.34466 88.4938C3.31933 88.4103 3.29761 88.3287 3.2777 88.247C2.24968 84.2251 2.12842 80.0471 2.12842 75.8982C2.12842 75.4138 2.12842 74.9276 2.12842 74.4469C2.12842 72.7688 2.14833 71.0798 2.17729 69.3927C2.17729 68.9555 2.19538 68.5201 2.20443 68.0811C2.22977 66.9672 2.26597 65.8533 2.31303 64.7394C2.32389 64.4292 2.33837 64.1208 2.35465 63.8124C2.35465 63.6346 2.3637 63.4568 2.3818 63.279C2.42524 62.6332 2.46144 61.9928 2.50488 61.3542Z" fill="#0984E3"/>
<path opacity="0.1" d="M39.0701 37.9663V60.5778H25.2588V37.9663H27.2279V30.3106H35.3109V37.9663H39.0701Z" fill="#0984E3"/>
<path opacity="0.1" d="M39.0702 61.3524H25.2607V86.4474H39.0702V61.3524Z" fill="#0984E3"/>
<path opacity="0.1" d="M25.2588 87.2257H39.0701V108.088C37.4409 108.558 35.7807 108.911 34.1019 109.146L33.6893 109.197C33.4865 109.22 33.2856 109.24 33.0866 109.26C32.8875 109.28 32.6811 109.295 32.4802 109.307H32.4169C32.33 109.307 32.2359 109.318 32.1508 109.32H32.0585C31.9499 109.32 31.8414 109.331 31.7328 109.335C31.5789 109.344 31.4251 109.345 31.2676 109.347C31.2007 109.347 31.1373 109.347 31.0703 109.347C30.9147 109.347 30.7609 109.347 30.6052 109.347H30.2631C30.1708 109.347 30.0821 109.347 29.9862 109.347L29.6369 109.335C29.4559 109.335 29.2605 109.315 29.0722 109.302L28.7247 109.277L28.2922 109.237C27.9881 109.209 27.6858 109.175 27.3872 109.133L27.0252 109.082L26.8443 109.057C26.542 109.01 26.2434 108.959 25.9393 108.901C25.7167 108.863 25.4959 108.816 25.2715 108.77L25.2588 87.2257Z" fill="#0984E3"/>
<path opacity="0.1" d="M125.404 35.2959H114.016V60.576H125.404V35.2959Z" fill="#0984E3"/>
<path opacity="0.1" d="M125.405 61.3524V86.4492H68.8809V75.6242H98.9883V82.01H114.016V61.3524H125.405Z" fill="#0984E3"/>
<path opacity="0.1" d="M125.584 114.133H125.403V130.596C123.364 130.423 121.331 130.188 119.304 129.891C110.178 128.551 101.281 125.949 92.8689 122.159C90.44 121.063 88.0606 119.867 85.7307 118.57C81.8388 116.409 78.1101 113.965 74.5745 111.258C73.6865 110.575 72.8099 109.878 71.9448 109.164C71.3457 108.669 70.7502 108.161 70.1475 107.667C69.7295 107.328 69.3077 106.994 68.8806 106.675V87.2257H113.865C113.835 87.1096 113.804 86.9935 113.771 86.8792C113.806 86.9935 113.838 87.1096 113.869 87.2257H125.403V114.122C125.465 114.124 125.525 114.129 125.584 114.133Z" fill="#0984E3"/>
<path opacity="0.1" d="M155.104 33.4128H147.683V31.1016H151.01V24.2169C151.298 24.3222 151.585 24.4304 151.871 24.5417V31.1016H155.104V33.4128Z" fill="#0984E3"/>
<path opacity="0.1" d="M172.982 60.5778H136.553C136.553 60.5778 136.553 60.5778 136.565 60.5868L136.549 60.5778H129.791V35.2977H131.706V53.9834H140.456V42.9171H147.685V34.1893H155.106V42.9244H162.334V53.9906H172.982V60.5778Z" fill="#0984E3"/>
<path opacity="0.1" d="M129.791 61.3524V86.4492H172.982V61.3524H129.791ZM184.706 115.991L184.766 96.1258H172.982V87.2366H129.791V130.867C133.332 131.016 136.878 130.973 140.415 130.74H140.476C142.166 130.633 143.847 130.478 145.521 130.275H145.559C154.487 129.234 163.217 126.899 171.476 123.343" fill="#0984E3"/>
<path opacity="0.1" d="M189.917 87.2257H199.993C199.904 92.3216 198.883 97.3268 196.65 101.949C194.791 105.79 192.208 109.148 189.157 112.081V96.1168H189.917V87.2257Z" fill="#0984E3"/>
<path opacity="0.1" d="M199.998 86.4492H189.917V65.4759H195.372C198.195 72.0885 199.989 79.345 199.998 86.4492Z" fill="#0984E3"/>
<path opacity="0.1" d="M125.405 42.3239H119.304V50.2499H125.405V42.3239Z" fill="#0984E3"/>
<path opacity="0.1" d="M125.405 58.7527H119.304V60.5778H125.405V58.7527Z" fill="#0984E3"/>
<path opacity="0.1" d="M125.405 61.3524H119.304V66.6769H125.405V61.3524Z" fill="#0984E3"/>
<path opacity="0.1" d="M125.405 75.1816H119.304V83.1076H125.405V75.1816Z" fill="#0984E3"/>
<path opacity="0.1" d="M125.405 91.6104H119.304V99.5364H125.405V91.6104Z" fill="#0984E3"/>
<path opacity="0.1" d="M125.404 114.122C125.465 114.122 125.525 114.122 125.585 114.133H125.404V115.974H119.304V108.039H125.404V114.122Z" fill="#0984E3"/>
<path opacity="0.1" d="M125.404 124.465V130.587C123.364 130.414 121.331 130.179 119.304 129.882V124.465H125.404Z" fill="#0984E3"/>
<path opacity="0.1" d="M95.0283 85.8669H68.8809V86.4492H95.0283V85.8669Z" fill="#0984E3"/>
<path opacity="0.1" d="M95.0283 87.2239H68.8809V89.4553H95.0283V87.2239Z" fill="#0984E3"/>
<path opacity="0.1" d="M95.0283 96.7699H68.8809V100.358H95.0283V96.7699Z" fill="#0984E3"/>
<path opacity="0.1" d="M95.0263 107.673V111.261H74.5746C73.6865 110.582 72.8093 109.884 71.943 109.168C71.3439 108.672 70.7503 108.164 70.1458 107.673H95.0263Z" fill="#0984E3"/>
<path opacity="0.1" d="M95.0266 118.574V122.159H92.8673C90.4409 121.062 88.0621 119.865 85.731 118.569L95.0266 118.574Z" fill="#0984E3"/>
<path opacity="0.1" d="M145.564 63.7852H140.417V68.9446H145.564V63.7852Z" fill="#0984E3"/>
<path opacity="0.1" d="M34.1146 39.746H28.9673V44.9054H34.1146V39.746Z" fill="#0984E3"/>
<path opacity="0.1" d="M34.1146 51.7302H28.9673V56.8896H34.1146V51.7302Z" fill="#0984E3"/>
<path opacity="0.1" d="M34.1146 63.7144H28.9673V68.8738H34.1146V63.7144Z" fill="#0984E3"/>
<path opacity="0.1" d="M34.1146 75.6968H28.9673V80.8562H34.1146V75.6968Z" fill="#0984E3"/>
<path opacity="0.1" d="M34.1146 87.681H28.9673V92.8404H34.1146V87.681Z" fill="#0984E3"/>
<path opacity="0.1" d="M34.1146 99.6652H28.9673V104.825H34.1146V99.6652Z" fill="#0984E3"/>
<path opacity="0.1" d="M165.214 63.7852H160.067V68.9446H165.214V63.7852Z" fill="#0984E3"/>
<path opacity="0.1" d="M145.564 76.5114H140.417V81.6708H145.564V76.5114Z" fill="#0984E3"/>
<path opacity="0.1" d="M165.214 76.5114H160.067V81.6708H165.214V76.5114Z" fill="#0984E3"/>
<path opacity="0.1" d="M145.564 89.2357H140.417V94.3952H145.564V89.2357Z" fill="#0984E3"/>
<path opacity="0.1" d="M165.214 89.2357H160.067V94.3952H165.214V89.2357Z" fill="#0984E3"/>
<path opacity="0.1" d="M145.564 101.962H140.417V107.121H145.564V101.962Z" fill="#0984E3"/>
<path opacity="0.1" d="M165.214 101.962H160.067V107.121H165.214V101.962Z" fill="#0984E3"/>
<path opacity="0.1" d="M145.564 114.688H140.417V119.848H145.564V114.688Z" fill="#0984E3"/>
<path opacity="0.1" d="M165.214 114.688H160.067V119.848H165.214V114.688Z" fill="#0984E3"/>
<path opacity="0.1" d="M140.417 130.74V127.412H145.562V130.266L140.417 130.74Z" fill="#0984E3"/>
<path opacity="0.1" d="M3.25781 54.1285V57.0801H20.8735V54.1285H3.25781ZM5.01341 56.8951H3.57635V54.3099H5.02426L5.01341 56.8951ZM6.76719 56.8951H5.31928V54.3099H6.76719V56.8951ZM8.51735 56.8951H7.06944V54.3099H8.51735V56.8951ZM10.2711 56.8951H8.82503V54.3099H10.2729L10.2711 56.8951ZM12.0231 56.8951H10.5752V54.3099H12.0231V56.8951ZM13.7769 56.8951H12.329V54.3099H13.7769V56.8951ZM15.5307 56.8951H14.0828V54.3099H15.5307V56.8951ZM17.2826 56.8951H15.8347V54.3099H17.2826V56.8951ZM19.0346 56.8951H17.5867V54.3099H19.0346V56.8951ZM20.7866 56.8951H19.3387V54.3099H20.7866V56.8951Z" fill="#0984E3"/>
<path opacity="0.1" d="M3.25781 62.7166V65.6682H20.8735V62.7166H3.25781ZM5.01341 65.4814H3.57635V62.9035H5.02426L5.01341 65.4814ZM6.76719 65.4814H5.31928V62.9035H6.76719V65.4814ZM8.51735 65.4814H7.06944V62.9035H8.51735V65.4814ZM10.2711 65.4814H8.82503V62.9035H10.2729L10.2711 65.4814ZM12.0231 65.4814H10.5752V62.9035H12.0231V65.4814ZM13.7769 65.4814H12.329V62.9035H13.7769V65.4814ZM15.5307 65.4814H14.0828V62.9035H15.5307V65.4814ZM17.2826 65.4814H15.8347V62.9035H17.2826V65.4814ZM19.0346 65.4814H17.5867V62.9035H19.0346V65.4814ZM20.7866 65.4814H19.3387V62.9035H20.7866V65.4814Z" fill="#0984E3"/>
<path opacity="0.1" d="M3.25781 71.3084V74.2654H20.8735V71.3084H3.25781ZM5.01341 74.0732H3.57635V71.4934H5.02426L5.01341 74.0732ZM6.76719 74.0732H5.31928V71.4934H6.76719V74.0732ZM8.51735 74.0732H7.06944V71.4934H8.51735V74.0732ZM10.2711 74.0732H8.82503V71.4934H10.2729L10.2711 74.0732ZM12.0231 74.0732H10.5752V71.4934H12.0231V74.0732ZM13.7769 74.0732H12.329V71.4934H13.7769V74.0732ZM15.5307 74.0732H14.0828V71.4934H15.5307V74.0732ZM17.2826 74.0732H15.8347V71.4934H17.2826V74.0732ZM19.0346 74.0732H17.5867V71.4934H19.0346V74.0732ZM20.7866 74.0732H19.3387V71.4934H20.7866V74.0732Z" fill="#0984E3"/>
<path opacity="0.1" d="M3.25781 79.9002V82.8482H20.8735V79.9002H3.25781ZM5.01341 82.6649H3.57635V80.0834H5.02426L5.01341 82.6649ZM6.76719 82.6649H5.31928V80.0834H6.76719V82.6649ZM8.51735 82.6649H7.06944V80.0834H8.51735V82.6649ZM10.2711 82.6649H8.82503V80.0834H10.2729L10.2711 82.6649ZM12.0231 82.6649H10.5752V80.0834H12.0231V82.6649ZM13.7769 82.6649H12.329V80.0834H13.7769V82.6649ZM15.5307 82.6649H14.0828V80.0834H15.5307V82.6649ZM17.2826 82.6649H15.8347V80.0834H17.2826V82.6649ZM19.0346 82.6649H17.5867V80.0834H19.0346V82.6649ZM20.7866 82.6649H19.3387V80.0834H20.7866V82.6649Z" fill="#0984E3"/>
<path opacity="0.1" d="M3.33374 88.4901C3.40433 88.7677 3.48396 89.0452 3.56721 89.3192V88.6752H5.01513V91.2549H4.24049C4.26402 91.3147 4.28755 91.3801 4.31108 91.4363H20.8734V88.4901H3.33374ZM6.77253 91.2549H5.32462V88.6752H6.77253V91.2549ZM8.52269 91.2549H7.07478V88.6752H8.52269V91.2549ZM10.2765 91.2549H8.82494V88.6752H10.2729L10.2765 91.2549ZM12.0284 91.2549H10.5805V88.6752H12.0284V91.2549ZM13.7822 91.2549H12.3343V88.6752H13.7822V91.2549ZM15.536 91.2549H14.0881V88.6752H15.536V91.2549ZM17.288 91.2549H15.8401V88.6752H17.288V91.2549ZM19.04 91.2549H17.592V88.6752H19.04V91.2549ZM20.7919 91.2549H19.344V88.6752H20.7919V91.2549Z" fill="#0984E3"/>
<path opacity="0.1" d="M7.42407 97.0819C7.46932 97.14 7.51276 97.2053 7.55981 97.2633H8.51725V98.5024C8.62041 98.6257 8.72176 98.7491 8.82674 98.8652V97.2561H10.2746V99.8448H9.68824C9.74616 99.9047 9.80227 99.9682 9.86923 100.026H20.8788V97.0819H7.42407ZM12.023 99.8448H10.5751V97.2669H12.023V99.8448ZM13.7768 99.8448H12.3289V97.2669H13.7768V99.8448ZM15.5306 99.8448H14.0827V97.2669H15.5306V99.8448ZM17.2825 99.8448H15.8346V97.2669H17.2825V99.8448ZM19.0345 99.8448H17.5866V97.2669H19.0345V99.8448ZM20.7865 99.8448H19.3386V97.2669H20.7865V99.8448Z" fill="#0984E3"/>
<path opacity="0.1" d="M17.0872 105.672C17.2519 105.766 17.4202 105.853 17.5903 105.948V105.857H19.0382V106.673L19.3459 106.817V105.857H20.7938V107.426C20.8216 107.44 20.8507 107.451 20.8807 107.459V105.672H17.0872Z" fill="#0984E3"/>
<path opacity="0.1" d="M136.553 60.5778H136.564H136.553ZM125.404 114.12H125.585H125.404ZM113.772 86.8774C113.806 86.9935 113.835 87.1096 113.868 87.2239C113.839 87.1096 113.808 86.9935 113.772 86.8774ZM136.553 60.5723H136.564H136.553ZM27.2354 33.4074V34.182H35.3201V33.4074H27.2354ZM125.404 114.12H125.585H125.404ZM113.772 86.8774C113.806 86.9935 113.835 87.1096 113.868 87.2239C113.839 87.1096 113.808 86.9935 113.772 86.8774ZM136.553 60.5723H136.564H136.553ZM125.404 114.115H125.585H125.404ZM113.772 86.8774C113.806 86.9935 113.835 87.1096 113.868 87.2239C113.839 87.1096 113.808 86.9935 113.772 86.8774Z" fill="#0984E3"/>
<path d="M83.5445 68.8775C83.5445 68.8775 82.8314 68.7777 82.8314 67.7364C82.8314 66.6951 82.3211 64.7503 82.3211 64.7503C82.3211 64.7412 81.8794 61.3633 81.2695 60.8263C80.6596 60.2893 79.8759 57.1363 79.8759 57.1363C79.8759 57.1363 79.742 55.4256 79.4687 55.0573C79.1954 54.6891 78.8262 53.7874 78.2814 52.5012C77.7366 51.215 75.4652 50.3243 75.4652 50.3243C75.4652 50.3243 71.3586 47.9368 70.1948 47.1586C70.089 47.0946 69.9902 47.0199 69.8998 46.9354C69.6971 46.6688 68.8139 46.6633 68.8139 46.6633C68.7216 46.0792 68.6329 45.4079 68.6039 44.8002C68.6039 44.7349 68.6039 44.6696 68.5949 44.6043C69.8925 43.8354 70.87 42.6231 71.3477 41.1901C71.3694 41.1211 71.3875 41.0486 71.4074 40.9796C71.4852 40.9539 71.5567 40.9123 71.6175 40.8573C71.6783 40.8023 71.7269 40.7352 71.7604 40.6603C71.8653 40.4263 71.8671 40.1524 71.9975 39.9347C72.1495 39.6771 72.4391 39.5392 72.6671 39.3451C73.2427 38.8553 73.3911 38.0298 73.3639 37.2788C73.3458 36.671 73.2481 36.0579 73.2861 35.4537L73.297 35.3014C73.3078 35.2106 73.3205 35.1199 73.3368 35.0329C73.4255 34.583 73.6191 34.1584 73.7277 33.7122C73.8363 33.2659 73.8472 32.7634 73.5938 32.3788C73.2227 31.8146 72.4499 31.7021 71.7712 31.644C71.002 31.5787 70.3143 31.664 69.822 31.0236C69.5916 30.6889 69.3324 30.3751 69.0473 30.0857C68.946 29.9914 67.9614 29.3891 67.9614 29.3492C67.0005 28.9031 65.9112 28.8193 64.8936 29.1133C64.3833 29.2621 63.9018 29.5052 63.3842 29.6267C62.2675 29.8916 60.9825 29.605 60.0341 30.2453C59.5056 30.6082 59.1889 31.1851 58.8921 31.7475C58.6507 32.2107 58.4058 32.6733 58.1572 33.1353C57.7573 33.8954 57.35 34.6682 57.1817 35.51C57.1463 35.6932 57.1245 35.8787 57.1166 36.0651V36.0742C57.1166 36.1413 57.1166 36.2084 57.1166 36.2755V36.3608C57.1166 36.4243 57.1166 36.486 57.1274 36.5422C57.1383 36.5985 57.1365 36.6166 57.1419 36.6547C57.1473 36.6928 57.1564 36.7781 57.1672 36.8361C57.1781 36.8942 57.1998 36.9958 57.2215 37.0756C57.2306 37.1101 57.2432 37.1427 57.2541 37.1754C57.2722 37.237 57.2939 37.2969 57.3174 37.3568C57.3301 37.3876 57.3428 37.4203 57.3573 37.4511C57.3844 37.5146 57.417 37.5763 57.4496 37.6325C57.4641 37.6579 57.4749 37.6815 57.4894 37.7051C57.5399 37.7895 57.5955 37.8706 57.6559 37.9482C58.0432 38.4326 58.6133 38.741 59.035 39.1945C59.035 39.2126 59.035 39.2308 59.035 39.2471C59.035 39.2979 59.035 39.3469 59.035 39.3977C59.0574 40.4092 59.326 41.3998 59.8174 42.2835C60.3089 43.1673 61.0083 43.9172 61.8548 44.4682C61.8548 44.5371 61.8639 44.6079 61.8675 44.6768C61.9028 45.2153 61.8961 45.7558 61.8476 46.2932C61.7739 46.2062 61.6816 46.1369 61.5776 46.0905C61.4736 46.044 61.3605 46.0215 61.2467 46.0247C61.169 46.0209 61.091 46.0276 61.0151 46.0447L60.9988 46.032V46.0483C60.6006 46.1463 60.1101 46.5617 59.6413 47.7427C59.6413 47.7427 58.2152 49.3537 57.1292 49.2866C56.0433 49.2194 53.2941 50.9628 53.2941 50.9628C53.2941 50.9628 50.6118 52.708 50.0363 54.4859C49.7146 55.494 49.3289 56.4805 48.8816 57.4393L45.5658 64.2877L44.9541 69.721C44.9541 69.721 45.2926 72.1375 45.2256 72.5057C45.1586 72.874 46.6174 76.1957 46.6174 76.1957C46.6174 76.1957 51.4371 84.6841 53.4063 85.1195L53.5475 85.0197C53.6317 85.0638 53.7211 85.0973 53.8135 85.1195L54.2189 84.8328C54.2433 85.1523 54.233 85.4735 54.1882 85.7907C53.9167 86.6288 54.2895 92.0985 54.7637 93.1706C55.2379 94.2428 55.0696 108.301 55.0696 108.301L55.0026 109.541C55.0026 109.541 55.0026 109.581 55.0189 109.65L55.0026 109.944L55.0515 109.97C55.1022 110.363 55.0857 110.763 55.0026 111.151C54.8325 111.695 54.7637 113.233 54.7637 113.233C54.7637 113.233 53.4081 121.919 54.0506 123.664C54.6931 125.41 55.2397 127.322 55.2397 127.322C55.2397 127.322 55.9184 129.499 55.2723 129.871C54.6261 130.243 52.7891 130.867 53.1674 131.774C53.5113 132.612 54.8162 134.858 55.0098 135.186L54.9936 135.358L54.7275 138.248C54.7706 138.63 54.8738 139.002 55.0334 139.351C55.3248 139.981 55.8913 140.634 56.9681 140.563C57.1491 140.551 57.3591 140.529 57.5618 140.502C59.5328 140.237 61.9598 139.355 61.9598 139.355C61.8338 139.275 61.7183 139.179 61.6159 139.07C61.5191 138.976 61.4423 138.863 61.3903 138.739C61.3384 138.614 61.3123 138.48 61.3137 138.345C61.3426 137.818 60.3599 135.311 60.1155 134.694C60.0775 134.606 60.0576 134.555 60.0576 134.555C60.0576 134.555 62.2983 132.207 61.9254 130.126C61.9254 130.126 59.4459 128.675 60.2621 127.879C61.0784 127.082 62.5372 124.795 62.5372 124.795C62.5372 124.795 62.6041 116.241 62.5372 114.964C62.4673 114.077 62.5093 113.186 62.6621 112.31C62.6892 112.177 62.7218 112.049 62.7562 111.922C63.885 112.09 65.0246 112.177 66.166 112.181C66.5823 112.181 67.0058 112.181 67.4329 112.156C67.4329 112.277 67.4383 112.407 67.4492 112.547C67.5433 114.666 67.7189 118.382 67.8619 119.762C68.0646 121.741 69.1849 127.075 69.1849 127.075C69.1849 127.075 67.0474 128.45 69.5577 131.839C69.5577 131.839 69.5577 133.067 69.3912 133.245C69.2135 133.826 69.0702 134.417 68.9623 135.016C68.8573 135.654 68.8139 136.3 68.984 136.636C69.3912 137.437 71.8346 137.372 71.8346 137.372L71.8943 137.361C72.3556 137.313 72.8217 137.358 73.2657 137.492C73.7097 137.626 74.1226 137.848 74.4806 138.143C75.4091 138.891 78.9329 138.562 80.8406 138.325C81.5881 138.23 82.0876 138.143 82.0876 138.143C82.1118 138.058 82.1204 137.97 82.1129 137.882C82.093 137.412 81.7256 136.382 79.2352 135.462C79.2352 135.462 76.8932 133.884 76.9258 132.508H76.8769H76.6054C76.8027 132.498 76.9294 132.508 76.9294 132.508C76.9294 132.508 76.0118 129.152 76.3864 128.88C76.7611 128.608 75.639 124.889 75.639 124.889C75.639 124.889 74.9964 118.648 74.9621 118.211C74.9635 117.836 75.0202 117.463 75.1304 117.105L74.9621 113.683C74.9621 113.683 74.9295 112.546 74.9621 112.176C74.9566 111.854 74.9306 111.534 74.8842 111.216C74.8679 111.089 74.8516 110.956 74.8335 110.826C75.7113 110.603 76.2815 110.396 76.2815 110.396L76.1801 98.486C76.9258 97.0347 77.0633 93.8509 77.0597 91.5923C77.0597 90.141 76.9946 89.067 76.9946 89.067L78.0135 87.3998C78.0135 87.3998 78.2488 85.4043 77.876 84.9671C77.7113 84.7693 77.7855 84.5643 77.9212 84.3956C77.9917 84.3396 78.0661 84.2887 78.1438 84.2432C78.1438 84.2432 78.133 84.2269 78.1203 84.2033C78.1915 84.1437 78.2671 84.0898 78.3465 84.0419C78.3465 84.0419 77.9846 83.4795 78.3085 83.2418C78.6126 83.4486 78.8841 83.6046 79.0904 83.7316C79.0759 83.8641 79.0615 83.9403 79.0615 83.9403L79.1483 83.7589C79.3474 83.8713 79.4687 83.9403 79.4687 83.9403C79.4687 83.9403 81.065 80.7528 81.0306 80.283C80.9962 79.8131 82.1165 77.8339 82.1165 77.8339C82.1165 77.8339 82.2523 76.7944 82.864 76.359C83.4758 75.9236 83.3382 72.7688 83.3382 72.7688C83.3382 72.7688 83.5084 71.1252 83.9156 70.4539C84.3228 69.7827 83.5445 68.8775 83.5445 68.8775ZM53.0009 67.4788L53.0316 68.2389C52.8506 67.9468 52.7203 67.7364 52.7203 67.7364L53.0009 67.4788Z" fill="url(#paint0_linear)"/>
<path d="M79.5555 82.5633L79.1645 84.2323C79.1645 84.2323 76.0334 82.6305 75.4687 80.595C74.9041 78.5595 76.4135 77.7867 76.4135 77.7867L79.331 79.0258L79.5555 82.5633Z" fill="white"/>
<path opacity="0.1" d="M79.5555 82.5633L79.1645 84.2323C79.1645 84.2323 76.0334 82.6305 75.4687 80.595C74.9041 78.5595 76.4135 77.7867 76.4135 77.7867L79.331 79.0258L79.5555 82.5633Z" fill="black"/>
<path d="M61.9833 139.366C61.9833 139.366 59.0875 140.433 57.0966 140.567C56.0396 140.638 55.484 139.988 55.198 139.362C55.0418 139.014 54.9411 138.644 54.8994 138.265L55.1582 135.389L55.2958 133.858L59.5255 132.757L60.1246 134.593L60.1807 134.733C60.4214 135.346 61.3861 137.84 61.3571 138.361C61.3559 138.494 61.3816 138.626 61.4326 138.749C61.4836 138.873 61.5589 138.984 61.6539 139.077C61.751 139.187 61.8617 139.284 61.9833 139.366Z" fill="white"/>
<path d="M81.7634 137.904C81.7707 137.991 81.7621 138.079 81.7381 138.163C81.7381 138.163 75.5446 139.199 74.2777 138.163C73.9205 137.86 73.5041 137.636 73.0553 137.504C72.6065 137.372 72.1351 137.336 71.6715 137.398C71.6715 137.398 69.2752 137.463 68.8752 136.672C68.7087 136.34 68.7521 135.696 68.8553 135.061C68.9605 134.466 69.1007 133.878 69.2752 133.299L69.3711 133.223L69.9412 132.764L76.6161 132.566H76.6668C76.6342 133.934 78.9327 135.504 78.9327 135.504C81.3743 136.411 81.7345 137.436 81.7634 137.904Z" fill="white"/>
<path opacity="0.1" d="M81.7637 137.904C81.77 137.991 81.7608 138.079 81.7365 138.163C81.7365 138.163 75.5449 139.199 74.278 138.163C73.921 137.861 73.5049 137.636 73.0564 137.505C72.6079 137.373 72.1369 137.336 71.6735 137.398C71.6735 137.398 69.2754 137.463 68.8773 136.672C68.7108 136.338 68.7524 135.696 68.8555 135.061C69.7786 135.153 71.2355 135.384 71.8075 135.934C72.6726 136.77 74.1386 137.604 75.0381 137.67C75.7422 137.715 79.9538 137.849 81.7637 137.904Z" fill="black"/>
<path opacity="0.1" d="M61.9832 139.366C61.9832 139.366 59.0873 140.433 57.0965 140.567C56.0395 140.638 55.4839 139.988 55.1997 139.36C55.9363 139.609 56.9589 139.87 57.4965 139.631C58.1335 139.348 60.3923 139.164 61.6592 139.086C61.7556 139.192 61.8644 139.286 61.9832 139.366Z" fill="black"/>
<path d="M66.2799 53.4028C63.8909 52.4722 60.8177 49.3972 61.5851 47.9604C61.7555 47.5979 61.8568 47.2065 61.8837 46.8066C61.9331 46.2638 61.9403 45.7179 61.9054 45.1739C61.8516 44.283 61.7446 43.3961 61.5851 42.518C61.5851 42.518 69.0436 42.6867 68.6092 43.7879C68.4825 44.1108 68.4626 44.6714 68.497 45.2991C68.5314 45.9268 68.6219 46.6361 68.716 47.2366C68.8463 48.0602 68.9766 48.6879 68.9766 48.6879C68.9766 48.6879 68.5205 49.3283 68.2527 49.3628C67.9848 49.3972 69.7078 54.729 66.2799 53.4028Z" fill="#CF6F80"/>
<path opacity="0.1" d="M60.1753 134.733L60.1192 134.794C57.8894 132.091 55.1926 135.46 55.1926 135.46L55.1528 135.389L55.2904 133.858L59.5201 132.757L60.1192 134.593L60.1753 134.733Z" fill="black"/>
<path opacity="0.1" d="M76.6688 132.757C76.6688 132.757 75.0399 132.722 74.1712 133.492C73.3024 134.261 69.1035 133.659 69.2845 133.492C69.3381 133.409 69.3704 133.314 69.3786 133.216L69.9487 132.757L76.6236 132.559C76.6489 132.681 76.6688 132.757 76.6688 132.757Z" fill="black"/>
<path d="M62.9497 111.53C62.8284 111.83 62.7363 112.142 62.6746 112.46C62.5237 113.332 62.4817 114.219 62.5497 115.102C62.6167 116.372 62.5497 124.882 62.5497 124.882C62.5497 124.882 61.1181 127.151 60.32 127.951C59.5218 128.751 61.9489 130.188 61.9489 130.188C62.3108 132.256 60.1173 134.593 60.1173 134.593C57.8875 131.89 55.1907 135.26 55.1907 135.26C55.1907 135.26 53.7247 132.721 53.3591 131.814C52.9935 130.907 54.7908 130.279 55.4224 129.911C56.0541 129.542 55.3916 127.371 55.3916 127.371C55.3916 127.371 54.8577 125.468 54.2243 123.732C53.5908 121.995 54.9229 113.353 54.9229 113.353C54.9229 113.353 54.9917 111.818 55.1564 111.283C55.2395 110.897 55.256 110.499 55.2052 110.107C55.1944 109.975 55.1817 109.864 55.1726 109.79C55.1636 109.716 55.1564 109.681 55.1564 109.681L55.1817 109.638L56.0866 107.947C56.0866 107.947 63.3841 110.465 62.9497 111.53Z" fill="#0984E3"/>
<path d="M76.6688 132.557C76.6688 132.557 75.0399 132.523 74.1711 133.283C73.3024 134.043 69.1034 133.45 69.2844 133.283C69.4654 133.116 69.4509 131.881 69.4509 131.881C66.9877 128.51 69.089 127.142 69.089 127.142C69.089 127.142 67.9886 121.836 67.7895 119.867C67.6501 118.492 67.4782 114.797 67.3859 112.687C67.346 111.78 67.3225 111.156 67.3225 111.156L69.3351 110.75L69.5939 110.697L74.448 109.721C74.448 109.721 74.582 110.628 74.6725 111.37C74.7176 111.687 74.743 112.006 74.7485 112.326C74.7159 112.689 74.7485 113.825 74.7485 113.825L74.9132 117.23C74.8056 117.587 74.7501 117.958 74.7485 118.331C74.7811 118.765 75.4127 124.972 75.4127 124.972C75.4127 124.972 76.5113 128.677 76.1367 128.944C75.762 129.21 76.6688 132.557 76.6688 132.557Z" fill="#0984E3"/>
<path opacity="0.1" d="M68.6094 43.7879C68.4827 44.1108 68.4628 44.6714 68.4972 45.2991C67.4981 45.9021 66.3496 46.2104 65.1836 46.1886C64.0176 46.1668 62.8814 45.8157 61.9056 45.1757C61.8518 44.2842 61.7448 43.3967 61.5852 42.518C61.5852 42.518 69.0437 42.6831 68.6094 43.7879Z" fill="black"/>
<path d="M71.4923 39.7786C71.4938 40.4324 71.3911 41.0822 71.1883 41.7035C70.7348 43.0956 69.805 44.2822 68.5631 45.0536C67.3213 45.825 65.8473 46.1315 64.4018 45.9189C62.9563 45.7064 61.6322 44.9885 60.6637 43.8921C59.6952 42.7957 59.1445 41.3914 59.1091 39.9274C59.1091 39.8766 59.1091 39.8294 59.1091 39.7786C59.095 38.9546 59.2448 38.136 59.5497 37.3706C59.8546 36.6051 60.3085 35.9082 60.8849 35.3205C61.4613 34.7328 62.1487 34.2659 62.907 33.9473C63.6653 33.6286 64.4794 33.4645 65.3016 33.4645C66.1238 33.4645 66.9379 33.6286 67.6962 33.9473C68.4545 34.2659 69.1419 34.7328 69.7183 35.3205C70.2947 35.9082 70.7486 36.6051 71.0535 37.3706C71.3584 38.136 71.5082 38.9546 71.4941 39.7786H71.4923Z" fill="#CF6F80"/>
<path opacity="0.1" d="M66.2799 53.4028C63.8909 52.4722 60.8177 49.3972 61.5851 47.9604C61.7555 47.5978 61.8568 47.2065 61.8837 46.8066L65.1542 49.5006L67.1776 51.1642L68.716 47.2384C68.8463 48.062 68.9766 48.6897 68.9766 48.6897C68.9766 48.6897 68.5205 49.3301 68.2527 49.3646C67.9848 49.399 69.7078 54.729 66.2799 53.4028Z" fill="black"/>
<path d="M74.7376 65.309L72.0065 111.298L68.4446 111.532L59.2214 84.8655L60.7345 53.2069L61.053 46.5182L65.1543 49.8943L67.1795 51.5579L68.7632 47.5178L71.7079 50.0902L74.7376 65.309Z" fill="#0984E3"/>
<path opacity="0.1" d="M62.9498 111.53C62.8285 111.83 62.7363 112.142 62.6747 112.46C60.0829 112.059 57.5657 111.271 55.2071 110.122L55.1582 110.097L55.1745 109.804L55.1835 109.652L56.0885 107.961C56.0885 107.961 63.3841 110.465 62.9498 111.53Z" fill="black"/>
<path opacity="0.1" d="M69.3768 112.468C68.7143 112.581 68.046 112.657 67.3751 112.696C67.3353 111.789 67.3118 111.165 67.3118 111.165L69.3243 110.759L69.3768 112.468Z" fill="black"/>
<path opacity="0.1" d="M74.6616 111.379C73.3747 111.715 71.3875 112.092 69.6083 111.856L69.583 110.706L74.4371 109.73C74.4371 109.73 74.5711 110.628 74.6616 111.379Z" fill="black"/>
<path opacity="0.1" d="M69.5759 112.067C62.1554 113.337 55.3592 109.696 55.3592 109.696L55.4244 108.462C55.4244 108.462 55.5927 94.4768 55.1258 93.4046C54.6588 92.3325 54.295 86.8955 54.5593 86.061C54.8235 85.2265 53.5946 72.7125 53.5946 72.7125L53.3955 67.633L46.1089 64.6741L49.3667 57.8674C49.8067 56.9131 50.1852 55.9315 50.4997 54.9285C51.0662 53.1616 53.6959 51.4254 53.6959 51.4254C53.6959 51.4254 56.3927 49.6911 57.4587 49.7564C58.5247 49.8217 59.922 48.2217 59.922 48.2217C60.9536 45.5857 61.8875 46.7794 61.8875 46.7794C61.8875 46.9046 61.8875 46.7794 61.8368 47.1695C61.4748 50.063 67.69 59.2063 67.7787 59.3677L68.3705 73.8192L68.9696 92.1075L69.5759 112.067Z" fill="black"/>
<path d="M69.3767 112.067C61.9562 113.337 55.1583 109.696 55.1583 109.696L55.2252 108.462C55.2252 108.462 55.3935 94.4768 54.9248 93.4046C54.456 92.3325 54.094 86.8955 54.3601 86.061C54.6262 85.2265 53.3954 72.7125 53.3954 72.7125L53.1945 67.6329L45.9043 64.6632L49.1621 57.8565C49.6012 56.9018 49.9796 55.9202 50.2951 54.9176C50.8598 53.1507 53.4914 51.4145 53.4914 51.4145C53.4914 51.4145 56.1881 49.6802 57.2523 49.7455C58.3165 49.8108 59.7156 48.2108 59.7156 48.2108C60.749 45.5748 61.8874 46.7685 61.8874 46.7685C61.8874 46.8937 61.7788 46.9499 61.8367 47.1586C62.6331 49.965 67.4908 59.1954 67.5795 59.3568L68.1786 73.8083L68.7777 92.0966L69.3767 112.067Z" fill="white"/>
<path opacity="0.1" d="M67.3767 59.7687C66.5786 59.4348 62.3507 54.5965 62.3507 54.5965V53.4954C62.1968 53.1325 61.2828 53.3539 60.5408 53.6078L60.8593 46.9191L61.2213 47.2202C62.014 50.0249 67.2844 59.6072 67.3767 59.7687Z" fill="black"/>
<path d="M67.5778 59.3677C66.7778 59.0339 62.5499 54.1956 62.5499 54.1956V53.0944C62.396 52.7316 61.482 52.9529 60.74 53.2069L61.0603 46.5182L61.4223 46.8193C62.2169 49.624 67.4891 59.2081 67.5778 59.3677Z" fill="white"/>
<path opacity="0.1" d="M55.3591 83.4976C55.4587 83.4976 60.5191 82.9643 60.5191 82.9643C60.5191 82.9643 63.5833 89.0035 63.3824 90.473C63.1815 91.9424 62.8177 93.2432 61.5852 93.0128C60.3526 92.7824 54.9519 93.1942 54.9519 93.1942L55.3591 83.4976Z" fill="black"/>
<path d="M55.1582 83.0967C55.2577 83.0967 60.3182 82.5633 60.3182 82.5633C60.3182 82.5633 63.3805 88.6044 63.1814 90.0721C62.9824 91.5397 62.6149 92.8423 61.3842 92.6119C60.1535 92.3815 54.751 92.7933 54.751 92.7933L55.1582 83.0967Z" fill="white"/>
<path d="M58.9717 80.2612C58.9717 80.2612 63.6158 82.7629 63.7154 83.5266C63.8149 84.2904 61.3517 83.1928 60.8196 83.0604C60.4693 82.9758 60.1128 82.92 59.7535 82.8935L56.2043 82.9896L58.9717 80.2612Z" fill="#CF6F80"/>
<path opacity="0.1" d="M66.081 60.0807C66.3508 60.0807 66.5696 59.8614 66.5696 59.5909C66.5696 59.3204 66.3508 59.1011 66.081 59.1011C65.8111 59.1011 65.5923 59.3204 65.5923 59.5909C65.5923 59.8614 65.8111 60.0807 66.081 60.0807Z" fill="black"/>
<path d="M66.081 59.8811C66.3508 59.8811 66.5696 59.6618 66.5696 59.3913C66.5696 59.1208 66.3508 58.9015 66.081 58.9015C65.8111 58.9015 65.5923 59.1208 65.5923 59.3913C65.5923 59.6618 65.8111 59.8811 66.081 59.8811Z" fill="#3F3D56"/>
<path opacity="0.1" d="M66.9804 81.2844C67.2503 81.2844 67.469 81.0651 67.469 80.7945C67.469 80.524 67.2503 80.3047 66.9804 80.3047C66.7105 80.3047 66.4917 80.524 66.4917 80.7945C66.4917 81.0651 66.7105 81.2844 66.9804 81.2844Z" fill="black"/>
<path d="M66.9804 81.083C67.2503 81.083 67.469 80.8637 67.469 80.5932C67.469 80.3227 67.2503 80.1034 66.9804 80.1034C66.7105 80.1034 66.4917 80.3227 66.4917 80.5932C66.4917 80.8637 66.7105 81.083 66.9804 81.083Z" fill="#3F3D56"/>
<path opacity="0.1" d="M66.5678 70.6825C66.8377 70.6825 67.0565 70.4632 67.0565 70.1927C67.0565 69.9222 66.8377 69.7029 66.5678 69.7029C66.2979 69.7029 66.0791 69.9222 66.0791 70.1927C66.0791 70.4632 66.2979 70.6825 66.5678 70.6825Z" fill="black"/>
<path d="M66.5678 70.483C66.8377 70.483 67.0565 70.2637 67.0565 69.9932C67.0565 69.7226 66.8377 69.5033 66.5678 69.5033C66.2979 69.5033 66.0791 69.7226 66.0791 69.9932C66.0791 70.2637 66.2979 70.483 66.5678 70.483Z" fill="#3F3D56"/>
<path d="M77.8326 82.7919C77.8326 82.7919 78.1656 83.2926 77.8326 83.5266C77.4996 83.7607 77.8652 84.3267 77.8652 84.3267C77.8652 84.3267 77.0344 84.8147 77.4 85.2537C77.7656 85.6927 77.5339 87.6756 77.5339 87.6756L76.5349 89.3337C76.5349 89.3337 76.5946 90.4022 76.5982 91.8463C76.5982 94.0994 76.4661 97.2669 75.7349 98.711L75.8363 110.559C75.8363 110.559 72.3378 111.84 69.4094 111.45L68.975 92.4377C68.975 92.4377 69.6084 81.6563 69.8419 79.5881C69.9785 78.5145 70.0342 77.432 70.0084 76.3499C70.0084 76.3499 69.9089 73.1135 69.5741 71.6114C69.5741 71.6114 69.2121 65.1041 69.1759 63.3026C69.1596 62.4409 69.2048 59.9265 69.2555 57.5355C69.3116 54.9213 69.375 52.4559 69.375 52.4559L68.7144 47.2166C68.7144 47.2166 69.375 47.1495 69.5741 47.4162C69.6632 47.4997 69.7602 47.5744 69.8636 47.6393C71.0039 48.4122 75.0327 50.7887 75.0327 50.7887C75.0327 50.7887 77.2625 51.6776 77.7964 52.9511C78.3303 54.2247 78.7013 55.1281 78.9601 55.4909C79.219 55.8538 79.3601 57.559 79.3601 57.559C79.3601 57.559 80.1275 60.6975 80.7266 61.2291C81.3257 61.7606 81.7637 65.1421 81.7637 65.1421L76.4697 69.3147C76.4697 69.3147 76.0046 76.2556 75.905 76.5241C75.8055 76.7926 77.8326 82.7919 77.8326 82.7919Z" fill="white"/>
<path d="M78.0332 82.7919C78.0332 82.7919 78.3644 83.2926 78.0332 83.5266C77.702 83.7607 78.064 84.3267 78.064 84.3267C78.064 84.3267 77.2387 84.8201 77.6006 85.2591C77.9626 85.6982 77.7346 87.681 77.7346 87.681L76.7355 89.3391C76.7355 89.3391 76.7952 90.4077 76.8007 91.8517C76.8007 94.1049 76.6685 97.2724 75.9374 98.7164L76.0369 110.565C76.0369 110.565 72.533 111.845 69.6082 111.455L69.1756 92.4431C69.1756 92.4431 69.8091 81.6617 70.0425 79.5936C70.1793 78.5199 70.2344 77.4374 70.2072 76.3553C70.2072 76.3553 70.1077 73.1189 69.7747 71.6168C69.7747 71.6168 69.4127 65.1095 69.3747 63.308C69.3584 62.4463 69.4055 59.9319 69.4543 57.5409C69.5104 54.9267 69.5738 52.4613 69.5738 52.4613L68.7014 47.1513C68.7014 47.1513 69.5738 47.1513 69.7747 47.4216C69.863 47.5061 69.9601 47.5809 70.0643 47.6448C71.2045 48.4176 75.2351 50.7941 75.2351 50.7941C75.2351 50.7941 77.4631 51.683 77.997 52.9566C78.5309 54.2301 78.9019 55.1335 79.1626 55.4964C79.4232 55.8592 79.5607 57.5645 79.5607 57.5645C79.5607 57.5645 80.3281 60.7029 80.9272 61.2345C81.5263 61.766 81.9588 65.1403 81.9588 65.1403L76.6649 69.3128C76.6649 69.3128 76.1998 76.2537 76.0984 76.5222C75.9971 76.7907 78.0332 82.7919 78.0332 82.7919Z" fill="white"/>
<path opacity="0.1" d="M71.6934 54.0015L72.1712 55.3984L69.6555 57.9382C69.7116 55.3258 69.775 52.8586 69.775 52.8586L68.9026 47.5486C68.9026 47.5486 69.775 47.5486 69.9759 47.8189C70.0639 47.9032 70.1611 47.9774 70.2654 48.0402L72.4047 54.2265L71.6934 54.0015Z" fill="black"/>
<path d="M71.4923 53.6006L71.9719 54.9975L69.4561 57.5373C69.5123 54.9231 69.5756 52.4577 69.5756 52.4577L68.7014 47.1477C68.7014 47.1477 69.5756 47.1477 69.7747 47.418C69.8635 47.502 69.9605 47.5767 70.0643 47.6411L72.2054 53.8255L71.4923 53.6006Z" fill="white"/>
<path opacity="0.1" d="M71.4923 39.7786C71.4938 40.4324 71.3911 41.0822 71.1883 41.7035C71.1541 41.7088 71.1192 41.7072 71.0856 41.6988C71.052 41.6904 71.0205 41.6753 70.9928 41.6545C70.9457 40.0217 70.144 38.4888 69.1576 37.1844C68.8806 36.7906 68.5449 36.4418 68.1621 36.1504C67.7752 35.859 67.2938 35.7226 66.812 35.7676C66.269 35.842 65.7894 36.212 65.241 36.2592C64.517 36.3191 63.8691 35.8166 63.1505 35.7912C62.8584 35.7939 62.5703 35.8591 62.3053 35.9824C62.0403 36.1057 61.8047 36.2841 61.614 36.5059C61.2365 36.9535 60.956 37.475 60.7904 38.0371C60.5059 38.8894 60.3509 39.7799 60.3307 40.6785C60.3217 41.1864 60.2728 41.8232 59.8023 42.0082C59.8377 41.6347 59.7953 41.2578 59.6779 40.9015C59.5604 40.5452 59.3704 40.2172 59.1199 39.9383L59.1091 39.9274C59.1091 39.8766 59.1091 39.8294 59.1091 39.7786C59.095 38.9546 59.2448 38.136 59.5497 37.3706C59.8546 36.6051 60.3085 35.9082 60.8849 35.3205C61.4613 34.7328 62.1487 34.2659 62.907 33.9473C63.6653 33.6286 64.4794 33.4645 65.3016 33.4645C66.1238 33.4645 66.9379 33.6286 67.6962 33.9473C68.4545 34.2659 69.1419 34.7328 69.7183 35.3205C70.2947 35.9082 70.7486 36.6051 71.0535 37.3706C71.3584 38.136 71.5082 38.9546 71.4941 39.7786H71.4923Z" fill="black"/>
<path d="M67.8654 29.9224C66.9249 29.479 65.8552 29.3951 64.8573 29.6866C64.356 29.8354 63.8836 30.0766 63.375 30.1982C62.2891 30.4612 61.0222 30.1764 60.0901 30.8132C59.5725 31.176 59.2612 31.7493 58.9716 32.3062L58.2476 33.6886C57.8531 34.4451 57.4549 35.2143 57.2902 36.047C57.1255 36.8796 57.225 37.8121 57.7517 38.4815C58.1354 38.9695 58.7019 39.2761 59.1182 39.7351C59.3676 40.0143 59.5567 40.3421 59.6738 40.698C59.7909 41.0538 59.8334 41.4301 59.7987 41.8032C60.2711 41.6218 60.3163 40.9832 60.3272 40.4753C60.3474 39.5767 60.5023 38.6862 60.7869 37.8339C60.9521 37.2716 61.2326 36.7501 61.6104 36.3028C61.8012 36.0811 62.037 35.9028 62.3019 35.7795C62.5668 35.6563 62.8549 35.591 63.147 35.588C63.8709 35.6134 64.5207 36.1141 65.2374 36.0542C65.7804 36.0089 66.2618 35.637 66.8084 35.5644C67.2903 35.5187 67.7719 35.6552 68.1586 35.9472C68.5412 36.2382 68.8764 36.5871 69.1522 36.9812C70.1404 38.2856 70.9422 39.8149 70.9892 41.4513C71.1938 41.6019 71.4888 41.4059 71.5901 41.1737C71.6915 40.9415 71.6951 40.6694 71.8236 40.4481C71.972 40.1923 72.2562 40.0562 72.4788 39.8639C73.0435 39.3759 73.1846 38.5541 73.1629 37.8085C73.1412 37.0629 72.9964 36.3064 73.1376 35.5735C73.2226 35.1236 73.4145 34.7027 73.5195 34.2582C73.6244 33.8138 73.6371 33.3149 73.3892 32.9321C73.0272 32.3697 72.2652 32.259 71.601 32.2064C70.8463 32.1411 70.1712 32.2246 69.6897 31.5878C69.4638 31.2555 69.2094 30.9435 68.9296 30.6553C68.8337 30.561 67.8654 29.9623 67.8654 29.9224Z" fill="#512E4E"/>
<path opacity="0.1" d="M48.1938 68.179L46.3024 64.6741L45.7034 70.082C45.7034 70.082 46.0364 72.484 45.9694 72.8522C45.9025 73.2205 47.3341 76.5222 47.3341 76.5222C47.3341 76.5222 52.0633 84.9653 53.9945 85.4007L60.5191 80.7274L58.7889 78.5251C58.7889 78.5251 58.1898 78.291 58.0396 78.5251C58.0396 78.5251 54.827 72.9847 54.494 72.5837C54.161 72.1828 54.2261 71.3828 54.2261 71.3828C54.2261 71.3828 53.7266 70.8494 53.8931 70.3487C54.0596 69.848 52.9284 68.1119 52.9284 68.1119L53.9601 67.1449L48.1938 68.179Z" fill="black"/>
<path d="M46.4021 64.275L45.9025 64.6741L45.3035 70.082C45.3035 70.082 45.6365 72.484 45.5695 72.8522C45.5026 73.2205 46.936 76.5222 46.936 76.5222C46.936 76.5222 51.6634 84.9653 53.5946 85.4007L60.121 80.7274L58.389 78.5251C58.389 78.5251 57.7899 78.291 57.6397 78.5251C57.6397 78.5251 54.4271 72.9847 54.0941 72.5837C53.7611 72.1828 53.828 71.3828 53.828 71.3828C53.828 71.3828 53.3285 70.8494 53.495 70.3487C53.6615 69.848 52.5285 68.1119 52.5285 68.1119L53.5602 67.145L46.4021 64.275Z" fill="white"/>
<path opacity="0.1" d="M77.3999 85.4605C77.7619 85.9014 77.5339 87.8806 77.5339 87.8806L76.5348 89.5387C76.5348 89.5387 76.5945 90.609 76.5981 92.0513L74.9186 92.5774C74.7668 92.6249 74.6059 92.6353 74.4492 92.6078C74.2926 92.5803 74.1448 92.5157 74.0181 92.4193C73.8915 92.3229 73.7897 92.1975 73.7212 92.0537C73.6527 91.9098 73.6196 91.7516 73.6245 91.5923L73.9141 82.2295L77.8325 83.7316C77.4995 83.9638 77.8651 84.5335 77.8651 84.5335C77.8651 84.5335 77.0343 85.0197 77.3999 85.4605Z" fill="black"/>
<path d="M77.6009 85.2592C77.9629 85.7 77.7349 87.681 77.7349 87.681L76.7358 89.3392C76.7358 89.3392 76.7955 90.4077 76.801 91.8517L75.0906 92.3869C74.942 92.4332 74.7844 92.4433 74.6311 92.4162C74.4778 92.3891 74.3331 92.3258 74.2092 92.2314C74.0853 92.1369 73.9856 92.0142 73.9186 91.8734C73.8515 91.7326 73.819 91.5778 73.8237 91.4218L74.1151 82.03L78.0353 83.5321C77.7005 83.7643 78.0661 84.3321 78.0661 84.3321C78.0661 84.3321 77.2389 84.8201 77.6009 85.2592Z" fill="white"/>
<path d="M78.8984 80.7964C78.8984 80.7964 78.6323 82.4998 77.9663 82.5996C77.3003 82.6994 77.0016 85.3553 76.3374 85.261C75.6732 85.1666 76.113 82.7919 76.1365 82.3311C76.16 81.8703 75.4126 79.9619 75.9718 79.5283C76.5311 79.0947 78.3011 79.5283 78.3011 79.5283L78.8984 80.7964Z" fill="#CF6F80"/>
<path opacity="0.1" d="M80.3155 67.6783L81.5716 65.1385C81.5716 65.1385 82.0711 67.0742 82.0711 68.1083C82.0711 69.1423 82.7697 69.2439 82.7697 69.2439C82.7697 69.2439 83.5353 70.151 83.1317 70.8113C82.7281 71.4717 82.5652 73.1153 82.5652 73.1153C82.5652 73.1153 82.6973 76.2519 82.0983 76.6855C81.4992 77.1191 81.3743 78.155 81.3743 78.155C81.3743 78.155 80.2739 80.1233 80.3083 80.5914C80.3427 81.0594 78.7771 84.2287 78.7771 84.2287C78.7771 84.2287 79.5427 80.2902 75.0813 78.5885C75.0813 78.5885 75.0469 77.2515 75.38 76.8851C75.713 76.5186 76.2324 76.3517 75.9066 74.4995C75.5809 72.6472 75.8125 70.434 75.8125 69.9895C75.8125 69.5451 76.8116 66.7731 76.8116 66.7731L80.3155 67.6783Z" fill="black"/>
<path d="M80.8585 64.7757L81.9553 65.1385C81.9553 65.1385 82.4566 67.0742 82.4566 68.1083C82.4566 69.1423 83.1552 69.2439 83.1552 69.2439C83.1552 69.2439 83.9208 70.151 83.5172 70.8113C83.1136 71.4717 82.9525 73.1153 82.9525 73.1153C82.9525 73.1153 83.0847 76.2519 82.4856 76.6855C81.8865 77.1191 81.7526 78.155 81.7526 78.155C81.7526 78.155 80.654 80.1233 80.6884 80.5914C80.7228 81.0594 79.1554 84.2287 79.1554 84.2287C79.1554 84.2287 79.9228 80.2902 75.4596 78.5885C75.4596 78.5885 75.427 77.2515 75.76 76.8851C76.0931 76.5186 76.6125 76.3517 76.2867 74.4995C75.9609 72.6472 76.1926 70.434 76.1926 69.9895C76.1926 69.5451 77.1917 66.7731 77.1917 66.7731L80.8585 64.7757Z" fill="white"/>
<path opacity="0.1" d="M56.6333 130.605C56.6333 130.605 58.3816 129.504 59.5291 130.304C60.6766 131.104 56.6333 130.605 56.6333 130.605Z" fill="black"/>
<path opacity="0.1" d="M70.2183 127.2C70.2183 127.2 71.7657 127.001 73.0652 128.403C74.3647 129.805 70.2183 127.2 70.2183 127.2Z" fill="black"/>
<g opacity="0.1">
<path opacity="0.1" d="M72.4826 39.4666C72.26 39.6589 71.9741 39.7968 71.8256 40.0526C71.6989 40.2721 71.6953 40.5424 71.594 40.7783C71.4926 41.0141 71.1976 41.2064 70.9931 41.0576C70.946 39.4249 70.1424 37.892 69.1561 36.5858C68.8803 36.1916 68.5451 35.8427 68.1624 35.5517C67.7751 35.2598 67.2929 35.1233 66.8104 35.1689C66.2675 35.2433 65.7897 35.6134 65.2413 35.6588C64.5173 35.7204 63.8675 35.2179 63.149 35.1925C62.857 35.1954 62.569 35.2609 62.3043 35.3845C62.0396 35.5081 61.8043 35.6869 61.6142 35.9091C61.2364 36.3558 60.9559 36.8767 60.7907 37.4384C60.5063 38.2908 60.3514 39.1812 60.331 40.0798C60.3202 40.586 60.2731 41.2173 59.8062 41.4059C59.817 41.54 59.817 41.6747 59.8062 41.8087C60.2767 41.6273 60.3238 40.9887 60.3346 40.4807C60.3548 39.5821 60.5098 38.6917 60.7944 37.8393C60.9595 37.2771 61.24 36.7556 61.6179 36.3082C61.8084 36.0866 62.0438 35.9083 62.3084 35.785C62.573 35.6618 62.8608 35.5965 63.1526 35.5934C63.8766 35.6188 64.5282 36.1195 65.2449 36.0597C65.7878 36.0143 66.2693 35.6424 66.8141 35.5699C67.2965 35.5242 67.7787 35.6607 68.166 35.9526C68.5487 36.2437 68.8839 36.5925 69.1597 36.9867C70.1461 38.2911 70.9497 39.8204 70.9967 41.4567C71.2012 41.6073 71.4962 41.4114 71.5976 41.1792C71.6989 40.947 71.7026 40.6748 71.8293 40.4535C71.9777 40.1977 72.2636 40.0617 72.4863 39.8694C73.0509 39.3814 73.1921 38.5596 73.1704 37.814C73.1704 37.7904 73.1704 37.7668 73.1704 37.745C73.136 38.3908 72.9641 39.0494 72.4826 39.4666Z" fill="black"/>
<path opacity="0.1" d="M59.1219 39.3378C58.7056 38.8788 58.1373 38.5723 57.7555 38.0861C57.4339 37.6557 57.2502 37.1376 57.2288 36.6003C57.1718 37.2717 57.3589 37.9411 57.7555 38.4852C58.1373 38.9732 58.7056 39.2798 59.1219 39.7387C59.5216 40.1877 59.7616 40.7568 59.8043 41.357C59.832 40.9917 59.7858 40.6246 59.6686 40.2776C59.5513 39.9307 59.3654 39.611 59.1219 39.3378Z" fill="black"/>
<path opacity="0.1" d="M73.5232 33.8609C73.4164 34.3054 73.2264 34.7281 73.1395 35.1762C73.0881 35.4756 73.0693 35.7797 73.0834 36.0832C73.0895 35.9104 73.1082 35.7382 73.1395 35.568C73.2264 35.1181 73.4164 34.6973 73.5232 34.2528C73.5854 34.0076 73.6056 33.7537 73.5829 33.5017C73.5717 33.6228 73.5517 33.7428 73.5232 33.8609Z" fill="black"/>
</g>
<path opacity="0.1" d="M24.0228 137.982C33.7626 137.982 41.6583 136.711 41.6583 135.143C41.6583 133.575 33.7626 132.303 24.0228 132.303C14.2829 132.303 6.38721 133.575 6.38721 135.143C6.38721 136.711 14.2829 137.982 24.0228 137.982Z" fill="#0984E3"/>
<path d="M24.5909 80.7546H23.4561V106.365H24.5909V80.7546Z" fill="#535461"/>
<path d="M31.7219 106.287L31.6513 107.441L31.55 109.073L31.5083 109.752L31.4088 111.385L31.3653 112.063L31.264 113.696L30.1201 132.213C30.0704 133.009 29.7197 133.757 29.1394 134.304C28.559 134.85 27.7927 135.155 26.9963 135.155H21.049C20.2528 135.155 19.4866 134.85 18.9066 134.304C18.3265 133.757 17.9762 133.009 17.9269 132.213L16.7885 113.683L16.6871 112.05L16.6455 111.372L16.5442 109.739L16.5025 109.061L16.4012 107.428L16.3288 106.274C16.3162 106.052 16.349 105.83 16.4252 105.621C16.5015 105.412 16.6194 105.221 16.772 105.059C16.9245 104.898 17.1084 104.769 17.3123 104.681C17.5161 104.594 17.7358 104.549 17.9577 104.549H30.122C30.343 104.551 30.5613 104.598 30.7635 104.688C30.9656 104.778 31.1472 104.908 31.2971 105.071C31.4471 105.234 31.5621 105.426 31.6352 105.635C31.7082 105.844 31.7377 106.066 31.7219 106.287Z" fill="#3F3D56"/>
<path d="M31.6512 107.441L31.5498 109.068H16.4952L16.3938 107.441H31.6512Z" fill="#9D9CB5"/>
<path d="M31.5083 109.746L31.4087 111.376H16.6382L16.5369 109.746H31.5083Z" fill="#9D9CB5"/>
<path d="M31.3654 112.056L31.2658 113.683H16.7813L16.6799 112.056H31.3654Z" fill="#9D9CB5"/>
<path d="M14.6619 90.3532C21.2698 95.1462 24.0281 102.642 24.0281 102.642C24.0281 102.642 16.0646 102.368 9.45484 97.5753C2.84513 92.7824 0.0922852 85.2882 0.0922852 85.2882C0.0922852 85.2882 8.05218 85.5603 14.6619 90.3532Z" fill="#0984E3"/>
<path d="M0.0869141 85.2882C0.0869141 85.2882 8.35449 89.887 11.006 93.6949C13.6575 97.5028 24.0281 102.642 24.0281 102.642" stroke="#535461" stroke-width="2" stroke-miterlimit="10"/>
<path d="M18.9278 80.6984C22.524 83.3053 24.028 87.3853 24.028 87.3853C24.028 87.3853 19.6933 87.2366 16.0953 84.6296C12.4972 82.0227 10.9968 77.9409 10.9968 77.9409C10.9968 77.9409 15.3297 78.0897 18.9278 80.6984Z" fill="#0984E3"/>
<path d="M10.9968 77.9409C10.9968 77.9409 15.4962 80.4444 16.9387 82.5162C18.3812 84.5879 24.028 87.3853 24.028 87.3853" stroke="#535461" stroke-width="2" stroke-miterlimit="10"/>
<path d="M29.2496 87.1785C25.1176 91.7302 24.2434 97.6787 24.2434 97.6787C24.2434 97.6787 30.0694 96.2456 34.1978 91.6921C38.3262 87.1386 39.204 81.1918 39.204 81.1918C39.204 81.1918 33.3815 82.6268 29.2496 87.1785Z" fill="#0984E3"/>
<path d="M39.2076 81.1936C39.2076 81.1936 33.825 85.8596 32.4567 89.0743C31.0884 92.2889 24.2434 97.6787 24.2434 97.6787" stroke="#535461" stroke-width="2" stroke-miterlimit="10"/>
<path d="M180.929 85.5766C180.929 85.5766 177.941 70.6753 179.085 68.8212C179.085 68.8212 179.127 67.0978 179.058 64.9009C179.058 64.8174 179.058 64.7339 179.058 64.6487C179.259 64.7832 179.469 64.9044 179.686 65.0115C180.74 65.5542 181.95 65.7108 183.107 65.4542L182.202 64.4437C181.984 64.2024 181.758 63.9412 181.711 63.6219C181.664 63.3026 181.794 63.0178 181.907 62.733C182.766 60.556 182.812 57.8184 181.155 56.1567C179.756 54.7598 179.416 52.9566 177.898 51.6812C176.788 50.7469 176.178 49.3773 175.603 48.0529C175.116 46.9336 174.625 45.8052 174.347 44.6188C174.129 43.6917 174.043 42.7321 173.744 41.8268C173.445 40.9216 172.886 40.0417 172.012 39.6371C171.701 39.4938 171.355 39.4122 171.071 39.2217C170.698 38.9695 170.474 38.5595 170.204 38.2003C168.834 36.3862 164.246 37.4547 162.074 38.1913C161.483 38.3768 160.937 38.6804 160.467 39.0838L160.487 39.0512C160.503 39.024 160.523 38.9967 160.541 38.9695C160.303 39.1622 160.098 39.3919 159.933 39.6498C159.616 40.1524 159.484 40.7383 159.22 41.2826C158.901 41.9266 157.129 43.7244 157.891 44.4482C157.945 44.4969 158.006 44.5361 158.072 44.5643C158.358 44.6837 158.673 44.7152 158.977 44.6551L158.945 44.7331C158.684 45.3717 158.551 46.0551 158.552 46.7449C158.552 49.7256 161.004 52.142 164.032 52.142C164.601 52.1426 165.167 52.0551 165.71 51.8826C165.723 51.9515 165.733 52.0205 165.746 52.0894C165.746 52.1166 165.755 52.1438 165.759 52.171L165.663 52.3053C165.658 52.297 165.653 52.2891 165.647 52.2817L162.805 56.2619C162.371 56.5685 159.869 58.3827 159.728 59.7433C159.58 61.2327 159.431 62.976 159.431 62.976L159.411 63.3498C159.287 63.4538 159.142 63.5295 158.986 63.5718C158.83 63.6141 158.666 63.6219 158.507 63.5947C157.62 63.4495 157.62 66.8601 157.62 66.8601C157.62 66.8601 157.03 67.4044 156.624 66.9327C156.219 66.461 155.147 68.0593 155.147 68.0593L148.433 68.3495L148.279 68.3586L147.917 67.2357C147.878 67.1172 147.794 67.0189 147.683 66.9622C147.572 66.9055 147.444 66.8949 147.325 66.9327C147.297 66.9419 147.27 66.9535 147.244 66.9672L147.218 66.9817L147.171 67.0143L147.148 67.0361C147.135 67.0479 147.123 67.0606 147.111 67.0742L147.09 67.0996L147.079 67.1105C147.037 67.1684 147.009 67.2353 146.998 67.3059C146.987 67.3765 146.992 67.4487 147.014 67.5168L147.325 68.4801C146.029 68.7414 144.704 69.4779 145.785 71.5061L140.308 70.492L142.08 71.9833L151.227 73.8754C151.106 74.0931 151.186 74.4088 151.564 74.8532C153.193 76.7708 156.161 77.2914 157.355 77.4257C157.671 78.133 158.065 78.8024 158.53 79.4212L158.427 81.3315C158.427 81.3315 155.403 95.8918 154.849 96.6302C155.128 96.3126 155.384 95.9749 155.614 95.6197C154.737 98.6112 153.509 102.706 153.187 103.319C152.67 104.299 152.19 108.262 152.78 108.516C152.961 108.594 153.479 108.556 154.217 108.5V108.828L154.185 121.272C154.185 121.272 154.333 128.904 153.926 129.631C153.518 130.359 153.41 131.884 153.41 131.884C153.41 131.884 151.781 134.894 150.491 136.104C150.482 136.113 150.472 136.122 150.462 136.129L150.422 135.846C150.422 135.846 148.871 137.809 145.439 137.699C145.439 137.699 143.374 139.045 146.436 139.117C149.499 139.19 153.41 139.008 153.41 139.008C153.41 139.008 156.141 134.836 158.429 135.38V138.542H159.129V135.329C159.454 135.115 159.732 134.837 159.946 134.512C160.161 134.186 160.307 133.821 160.376 133.437C160.436 133.042 160.392 132.638 160.249 132.264C160.105 131.891 159.867 131.562 159.558 131.309C159.419 131.183 159.308 131.03 159.231 130.859C159.154 130.688 159.113 130.503 159.111 130.315L159.086 130.337C159.086 130.273 159.069 130.208 159.062 130.141C158.861 128.508 158.61 125.139 159.498 122.647C160.716 119.229 161.086 114.469 160.199 111.635C159.913 110.729 159.678 109.808 159.495 108.876C159.473 108.758 159.453 108.645 159.435 108.54C160.041 108.622 160.642 108.743 161.232 108.903C163.286 109.471 167.78 109.576 171.617 109.545C171.626 109.65 171.637 109.761 171.65 109.872C171.718 110.641 171.861 111.401 172.077 112.143C172.559 113.594 172.779 119.993 172.779 119.993C172.779 119.993 173.4 125.254 173.062 127.394C172.881 128.584 172.7 129.78 172.597 130.981V131.004C172.597 131.004 171.579 133.907 170.835 135.484C170.817 135.524 170.797 135.563 170.779 135.602C170.581 135.62 170.386 135.663 170.198 135.73C170.198 135.73 169.201 137.726 168.208 138.056C167.214 138.386 167.543 139.473 169.793 139.074C172.043 138.675 175.44 138.348 175.44 138.348L175.586 136.313L176.278 135.446L176.097 137.476L176.833 137.33L176.736 134.861L177.867 133.443C177.867 133.443 179.233 132.224 177.203 129.825V129.878C177.181 129.843 177.161 129.807 177.138 129.773V129.762C176.801 129.239 176.533 128.265 177.023 126.536C177.91 123.412 178.426 120.577 178.426 120.577C178.426 120.577 180.406 112.981 178.026 109.387H178.131C177.887 108.881 177.715 108.344 177.619 107.791C177.607 107.725 177.596 107.658 177.586 107.589C179.347 107.488 181.076 107.169 182.486 106.479C182.48 106.472 181.631 88.4466 180.929 85.5766ZM158.572 73.0046V73.0409L158.21 73.059L158.572 73.0046ZM157.33 73.177C157.271 73.1902 157.215 73.2169 157.167 73.255C157.012 73.4757 156.914 73.7321 156.883 74.0006L156.318 73.8736C156.318 73.8736 155.922 73.7883 155.352 73.6922L155.082 73.4201C155.824 73.3584 156.595 73.2677 157.33 73.177Z" fill="url(#paint1_linear)"/>
<path d="M176.013 134.887L175.798 137.457L176.52 137.312L176.412 134.524L176.013 134.887Z" fill="#1D2366"/>
<path d="M159.538 122.681C158.668 125.167 158.914 128.521 159.109 130.15C159.182 130.752 159.249 131.119 159.249 131.119C159.249 131.119 157.947 134.09 157.839 134.203C157.73 134.315 154.009 136.592 154.009 136.592L151.408 138.114C151.408 138.114 148.769 136.955 150.034 136.556C150.293 136.452 150.526 136.293 150.717 136.09C151.984 134.883 153.575 131.884 153.575 131.884C153.575 131.884 153.683 130.362 154.081 129.638C154.48 128.915 154.335 121.308 154.335 121.308L154.366 108.908V107.292L159.316 107.328C159.347 107.877 159.418 108.423 159.529 108.961C159.707 109.89 159.937 110.808 160.219 111.711C161.091 114.539 160.729 119.276 159.538 122.681Z" fill="#FFB0B1"/>
<path opacity="0.1" d="M159.249 131.119C159.249 131.119 157.947 134.09 157.839 134.203C157.73 134.315 154.009 136.592 154.009 136.592L151.408 138.114C151.408 138.114 148.769 136.955 150.034 136.556C150.293 136.452 150.526 136.293 150.717 136.09L150.829 136.882L151.696 136.846L159.116 130.154C159.182 130.752 159.249 131.119 159.249 131.119Z" fill="black"/>
<path d="M159.158 130.322L151.696 137.06L150.829 137.096L150.648 135.826C150.648 135.826 149.131 137.782 145.761 137.673C145.761 137.673 143.738 139.014 146.737 139.087C149.736 139.159 153.566 138.978 153.566 138.978C153.566 138.978 156.241 134.805 158.479 135.349V138.501H159.167V135.32C159.487 135.105 159.76 134.826 159.969 134.502C160.179 134.178 160.321 133.814 160.387 133.434C160.447 133.041 160.404 132.641 160.265 132.269C160.125 131.898 159.892 131.57 159.589 131.315C159.453 131.187 159.345 131.034 159.271 130.863C159.197 130.692 159.159 130.508 159.158 130.322Z" fill="#1D2366"/>
<path d="M176.701 126.556C176.22 128.28 176.482 129.25 176.812 129.771V129.782C177.234 130.425 177.528 131.144 177.677 131.899L177.706 132.062L174.31 137.024L172.468 137.749C172.468 137.749 169.505 136.735 170.046 136.445C170.182 136.374 170.394 135.997 170.636 135.476C171.36 133.907 172.359 131.012 172.359 131.012V130.988C172.464 129.793 172.631 128.601 172.815 127.414C173.147 125.279 172.538 120.038 172.538 120.038C172.538 120.038 172.321 113.665 171.851 112.215C171.638 111.478 171.497 110.723 171.429 109.959C171.331 109.052 171.31 108.304 171.31 108.304C171.31 108.304 173.261 105.583 176.837 108.522C177.123 108.756 177.375 109.03 177.584 109.335C180.055 112.858 178.066 120.619 178.066 120.619C178.066 120.619 177.568 123.441 176.701 126.556Z" fill="#FFB0B1"/>
<path opacity="0.1" d="M177.711 132.062L174.316 137.024L172.473 137.749C172.473 137.749 169.511 136.735 170.052 136.445C170.188 136.374 170.399 135.997 170.642 135.476C171.896 135.465 172.546 136.663 172.546 136.663L174.135 136.409C174.135 136.409 176.231 132.28 176.701 132.028C177.172 131.776 176.774 130.143 176.774 130.143V129.727C176.786 129.742 176.797 129.758 176.812 129.773V129.784C177.234 130.426 177.528 131.145 177.677 131.901L177.711 132.062Z" fill="black"/>
<path d="M172.654 136.77C172.654 136.77 171.75 135.104 170.016 135.719C170.016 135.719 169.04 137.715 168.065 138.038C167.089 138.361 167.415 139.449 169.619 139.052C171.824 138.655 175.147 138.326 175.147 138.326L175.291 136.296L177.532 133.435C177.532 133.435 178.868 132.222 176.881 129.833V130.248C176.881 130.248 177.279 131.881 176.808 132.133C176.338 132.385 174.249 136.516 174.249 136.516L172.654 136.77Z" fill="#1D2366"/>
<path opacity="0.1" d="M159.321 107.325C159.352 107.873 159.424 108.419 159.535 108.957C157.497 108.658 155.605 108.807 154.365 108.905V107.288L159.321 107.325Z" fill="black"/>
<path opacity="0.1" d="M177.785 109.786C177.785 109.786 174.89 109.928 171.436 109.957C171.339 109.05 171.317 108.302 171.317 108.302C171.317 108.302 173.268 105.581 176.844 108.52C177.13 108.754 177.382 109.028 177.592 109.333C177.648 109.487 177.712 109.639 177.785 109.786Z" fill="black"/>
<path d="M177.785 109.46C177.785 109.46 165.102 110.075 161.236 108.988C157.37 107.901 153.538 108.843 152.961 108.591C152.384 108.339 152.852 104.389 153.359 103.411C153.866 102.434 156.646 92.5447 156.646 92.5447L159.321 78.565L162.139 77.7867L162.338 77.7305L167.248 76.3735L170.846 75.3775C170.846 75.3775 178.001 103.375 177.387 105.44C177.164 106.23 177.128 107.062 177.282 107.869C177.376 108.42 177.545 108.955 177.785 109.46Z" fill="#1D2366"/>
<path d="M149.996 69.0044C149.996 69.0044 147.463 71.7257 149.381 73.2423C151.299 74.7589 152.561 73.3874 152.561 73.3874L149.996 69.0044Z" fill="#C7DAF5"/>
<path opacity="0.1" d="M149.996 69.0044C149.996 69.0044 147.463 71.7257 149.381 73.2423C151.299 74.7589 152.561 73.3874 152.561 73.3874L149.996 69.0044Z" fill="black"/>
<path d="M170.468 51.1134C170.468 51.1134 170.171 51.3964 169.724 51.8137C169.087 52.4105 168.144 53.2831 167.308 54.0142C166.15 55.0247 165.194 55.7667 165.536 55.1335C165.878 54.5004 165.813 53.3974 165.643 52.3652C165.63 52.2962 165.619 52.2273 165.607 52.1602C165.466 51.4021 165.279 50.6532 165.047 49.9179C165.047 49.9179 166.919 47.4942 167.954 46.5381C168.34 46.1753 168.609 46.0265 168.626 46.2787C168.644 46.618 168.897 47.3672 169.212 48.1618C169.221 48.1872 169.23 48.2108 169.241 48.2362C169.451 48.7804 169.688 49.3392 169.896 49.8217C170.215 50.5619 170.468 51.1134 170.468 51.1134Z" fill="#FFB0B1"/>
<path opacity="0.1" d="M169.241 48.2362C169.065 49.1843 168.638 50.0677 168.005 50.794C167.372 51.5204 166.557 52.063 165.643 52.3652C165.499 51.537 165.3 50.7194 165.047 49.9179C165.047 49.9179 168.571 45.3553 168.626 46.2787C168.638 46.6288 168.913 47.4053 169.241 48.2362Z" fill="black"/>
<path opacity="0.1" d="M165.292 53.5843L165.748 52.9402C165.748 52.9402 166.05 54.787 167.161 53.9725C168.273 53.1579 168.327 60.1025 168.327 60.1025L167.134 77.9772L158.515 77.4601L158.76 68.823L159.735 64.4691L162.148 58.1396L163.583 56.0479L165.292 53.5843Z" fill="black"/>
<path d="M168.327 60.2131L167.241 76.3753L167.127 78.0878L162.322 77.7994L162.141 77.7885L158.521 77.5708L158.765 68.9319L159.741 64.5779L162.153 58.2484L163.589 56.1567L165.297 53.684L165.753 53.0418C165.753 53.0418 166.056 54.8886 167.167 54.0741L167.19 54.0577C168.276 53.3684 168.327 60.2131 168.327 60.2131Z" fill="#1D2366"/>
<path d="M159.862 63.065C159.862 63.065 159.429 63.972 158.561 63.8251C157.692 63.6781 157.694 67.0905 157.694 67.0905C157.694 67.0905 157.116 67.6348 156.718 67.1631C156.32 66.6914 155.27 68.2861 155.27 68.2861L148.693 68.5763C148.693 68.5763 151.62 69.917 151.046 73.9734C151.046 73.9734 160.982 73.3566 161.308 72.415C161.634 71.4735 159.862 63.065 159.862 63.065Z" fill="white"/>
<path opacity="0.03" d="M159.862 63.065C159.862 63.065 159.429 63.972 158.561 63.8251C157.692 63.6781 157.694 67.0905 157.694 67.0905C157.694 67.0905 157.116 67.6348 156.718 67.1631C156.32 66.6914 155.27 68.2861 155.27 68.2861L148.693 68.5763C148.693 68.5763 151.62 69.917 151.046 73.9734C151.046 73.9734 160.982 73.3566 161.308 72.415C161.634 71.4735 159.862 63.065 159.862 63.065Z" fill="black"/>
<path d="M140.748 70.7079L142.482 72.1919L156.754 75.1979L154.984 73.3874L140.748 70.7079Z" fill="white"/>
<path d="M165.319 54.1557C165.082 54.5185 164.403 56.3762 163.837 57.9981C163.364 59.3496 162.97 60.5379 162.97 60.5379C162.97 60.5379 162.049 66.5499 161.578 67.6366C161.107 68.7233 161.363 72.9611 161.363 72.9611L159.609 83.4269C159.609 83.4269 158.814 88.8239 157.587 92.0477C156.376 95.2206 155.028 96.7082 154.986 96.7553C155.529 96.0188 158.488 81.5166 158.488 81.5166L159.466 63.2264C159.466 63.2264 159.609 61.4885 159.754 60.0027C159.898 58.5169 162.83 56.4887 162.83 56.4887L165.657 52.4595C165.942 52.8405 165.752 53.5044 165.319 54.1557Z" fill="white"/>
<path d="M157.947 77.6615C157.947 77.6615 153.784 77.4801 151.768 75.0528C149.752 72.6255 156.429 74.084 156.429 74.084L158.164 74.4831L157.947 77.6615Z" fill="#FFB0B1"/>
<path opacity="0.1" d="M177.387 105.441C177.164 106.232 177.128 107.064 177.282 107.871C172.741 108.193 167.883 106.964 167.883 106.964C166.979 107.798 164.595 109.028 164.595 109.028L163.295 92.8822C162.465 90.7052 162.139 79.2997 162.139 79.2997C162.139 79.2997 162.213 78.7028 162.32 77.8085C162.32 77.7867 162.32 77.7631 162.329 77.7413C162.653 75.2433 163.295 70.5537 163.61 69.9206C164.045 69.0498 162.275 66.7331 162.275 66.7331L163.08 59.8485L163.178 59.0176C164.875 58.2575 166.177 55.8302 166.177 55.8302L167.176 54.0759C168.262 53.3774 168.318 60.2222 168.318 60.2222L167.232 76.3844L170.83 75.3884C170.83 75.3884 178.001 103.377 177.387 105.441Z" fill="black"/>
<path d="M182.048 106.557C177.098 109.021 168.101 106.739 168.101 106.739C167.196 107.573 164.812 108.803 164.812 108.803L163.511 92.6572C162.682 90.4802 162.356 79.0747 162.356 79.0747C162.356 79.0747 163.402 70.5646 163.837 69.6956C163.963 69.4417 163.902 69.0643 163.752 68.6579C163.013 66.7238 162.741 64.6419 162.959 62.5824L163.306 59.6235L163.402 58.7945C165.102 58.0325 166.403 55.6052 166.403 55.6052L167.308 54.016L168.973 51.088L169.762 49.702L169.896 49.8235L170.919 50.7524C170.919 50.7524 171.353 51.1152 172.005 51.6595C173.422 52.8568 175.871 54.9648 177.134 56.2547C178.245 57.3903 178.596 61.8078 178.698 65.1331C178.765 67.3227 178.725 69.0389 178.725 69.0389C177.605 70.8875 180.535 85.729 180.535 85.729C181.217 88.5972 182.048 106.557 182.048 106.557Z" fill="white"/>
<path opacity="0.03" d="M172.546 55.5689C172.546 55.5689 169.149 62.0508 169.543 64.5145C169.938 66.9781 171.06 69.7664 170.519 70.4177C170.333 70.6644 170.092 70.8647 169.816 71.0029C169.54 71.141 169.236 71.2133 168.928 71.2141C168.385 71.2504 166.937 72.2645 166.937 72.3733C166.937 72.4822 165.599 72.4822 164.403 72.9901C163.207 73.4981 161.44 73.7865 161.44 73.7865C161.44 73.7865 158.001 73.6777 157.681 74.0042C157.361 74.3308 157.031 76.2846 157.717 77.8429C158.403 79.4013 159.165 80.5642 159.741 80.7764C160.316 80.9887 163.969 79.7623 166.931 79.472C169.894 79.1818 173.11 76.8288 173.11 76.8288C173.11 76.8288 176.652 75.5589 177.273 73.4237C177.894 71.2885 176.515 59.5528 176.515 59.5528C176.515 59.5528 175.472 54.0831 172.546 55.5689Z" fill="black"/>
<path opacity="0.03" d="M172.111 55.0247C172.111 55.0247 168.714 61.5084 169.112 63.9702C169.511 66.432 170.629 69.2221 170.086 69.8752C169.901 70.1223 169.661 70.3228 169.385 70.461C169.109 70.5992 168.805 70.6713 168.497 70.6716C167.954 70.7079 166.506 71.722 166.506 71.8309C166.506 71.9397 165.169 71.9397 163.972 72.4459C162.776 72.952 161.009 73.2423 161.009 73.2423C161.009 73.2423 157.571 73.1334 157.252 73.46C156.934 73.7865 156.601 75.7422 157.288 77.2987C157.976 78.8552 158.736 80.0199 159.312 80.2322C159.887 80.4444 163.54 79.2181 166.502 78.9296C169.465 78.6412 172.681 76.2846 172.681 76.2846C172.681 76.2846 176.222 75.0147 176.835 72.8813C177.449 70.7478 176.077 59.0085 176.077 59.0085C176.077 59.0085 175.038 53.5407 172.111 55.0247Z" fill="black"/>
<path d="M172.439 55.2424C172.439 55.2424 169.042 61.7261 169.44 64.1879C169.838 66.6497 170.957 69.4398 170.416 70.0911C170.23 70.3387 169.99 70.5397 169.714 70.6783C169.438 70.8168 169.134 70.8891 168.825 70.8893C168.282 70.9256 166.834 71.9397 166.834 72.0468C166.834 72.1538 165.498 72.1556 164.3 72.6636C163.102 73.1715 161.337 73.46 161.337 73.46C161.337 73.46 157.898 73.3511 157.578 73.6777C157.258 74.0042 156.928 75.9599 157.614 77.5164C158.3 79.0729 159.062 80.2376 159.638 80.4499C160.213 80.6621 163.866 79.4358 166.828 79.1455C169.791 78.8552 173.007 76.5023 173.007 76.5023C173.007 76.5023 176.549 75.2324 177.17 73.0971C177.791 70.9619 176.421 59.2262 176.421 59.2262C176.421 59.2262 175.364 53.7657 172.439 55.2424Z" fill="white"/>
<path opacity="0.1" d="M172.365 72.6327C172.365 72.6327 169.65 72.0885 170.595 72.9956C171.539 73.9026 171.534 74.6972 172.691 74.6609C173.847 74.6246 172.365 72.6327 172.365 72.6327Z" fill="black"/>
<path opacity="0.1" d="M176.953 92.1492C176.953 92.1492 175.726 92.9819 178.073 94.9013C180.421 96.8206 176.953 92.1492 176.953 92.1492Z" fill="black"/>
<path opacity="0.1" d="M174.611 98.994C174.611 99.1028 174.176 102.985 175.802 103.956C177.427 104.926 174.611 98.994 174.611 98.994Z" fill="black"/>
<path d="M148.806 68.5672C147.495 68.6126 144.665 69.0135 146.132 71.7583C147.43 74.1874 149.611 72.5638 150.838 71.332C150.539 70.1835 149.811 69.194 148.806 68.5672Z" fill="#FFB0B1"/>
<path d="M150.854 71.3107L150.909 71.254L150.854 71.3107Z" fill="#FFB0B1"/>
<path opacity="0.1" d="M172.005 51.7701C170.615 52.7225 169.449 53.5262 169.221 53.6931C168.598 54.1557 167.411 56.8715 166.645 58.2575C166.035 59.3732 164.054 59.6598 163.306 59.7306L163.402 58.9015C165.102 58.1396 166.403 55.7122 166.403 55.7122L169.762 49.809L170.919 50.863C170.919 50.863 171.353 51.2259 172.005 51.7701Z" fill="black"/>
<path d="M172.005 51.6613C170.615 52.6137 169.449 53.4174 169.221 53.5861C168.598 54.0469 167.411 56.7626 166.645 58.1486C166.035 59.2643 164.054 59.551 163.306 59.6217L163.402 58.7926C165.102 58.0307 166.403 55.6034 166.403 55.6034L169.762 49.7002L170.919 50.7506C170.919 50.7506 171.353 51.1098 172.005 51.6613Z" fill="#DCE7FF"/>
<path d="M169.33 47.0388C169.33 48.1278 169.001 49.1914 168.385 50.0884C167.657 51.149 166.574 51.9131 165.333 52.2419C164.091 52.5708 162.773 52.4427 161.618 51.8808C160.463 51.319 159.547 50.3606 159.036 49.1796C158.525 47.9986 158.454 46.6733 158.835 45.4441C159.216 44.2148 160.023 43.1632 161.112 42.4799C162.2 41.7966 163.496 41.5269 164.766 41.7198C166.036 41.9128 167.194 42.5555 168.031 43.5314C168.869 44.5073 169.329 45.7517 169.33 47.0388Z" fill="#FFB0B1"/>
<path opacity="0.1" d="M178.698 65.1349C177.963 64.6817 177.364 64.0372 176.965 63.27C176.663 62.6713 176.462 61.9801 175.947 61.5556C175.481 61.1746 174.861 61.0821 174.281 60.9116C172.377 60.3474 170.781 58.6058 170.721 56.6175C170.692 55.6814 170.984 54.7471 170.852 53.8201C170.777 53.2954 170.568 52.7989 170.247 52.3779C170.088 52.1765 169.913 51.9879 169.724 51.8137C169.471 51.5742 169.205 51.342 168.973 51.088C168.827 50.9307 168.7 50.7573 168.593 50.571C168.507 50.4185 168.437 50.2574 168.385 50.0902C168.023 48.98 168.352 47.6629 167.954 46.54L167.932 46.4783C167.782 46.0792 167.476 45.6801 167.051 45.6492C166.626 45.6184 166.262 45.9721 165.856 46.13C165.008 46.4601 164.092 45.8978 163.384 45.3245C162.676 44.7512 161.878 44.0963 160.979 44.2233C160.383 44.3086 159.913 44.7149 159.364 44.9254C159.24 44.9734 159.113 45.0105 158.982 45.036C159.447 43.8759 160.299 42.914 161.394 42.3156C162.489 41.7172 163.757 41.5196 164.982 41.7568C166.206 41.994 167.31 42.6511 168.103 43.6154C168.897 44.5796 169.33 45.7907 169.33 47.0407C169.33 47.4181 169.291 47.7945 169.212 48.1636C169.221 48.189 169.23 48.2126 169.241 48.238C169.451 48.7822 169.688 49.341 169.896 49.8235L170.919 50.7524C170.919 50.7524 171.353 51.1152 172.005 51.6595C173.422 52.8568 175.87 54.9648 177.134 56.2547C178.245 57.394 178.593 61.8096 178.698 65.1349Z" fill="black"/>
<path d="M159.301 41.6109C159.56 41.083 159.688 40.4916 159.998 39.9909C160.452 39.2652 161.245 38.8008 162.059 38.5196C164.186 37.7849 168.68 36.7182 170.023 38.5196C170.287 38.8825 170.506 39.2852 170.872 39.5355C171.15 39.726 171.487 39.8077 171.793 39.951C172.649 40.3537 173.195 41.2318 173.487 42.128C173.778 43.0241 173.865 43.9856 174.079 44.909C174.352 46.0937 174.832 47.2166 175.309 48.3323C175.872 49.6494 176.47 51.0154 177.556 51.9461C179.038 53.216 179.365 55.0138 180.741 56.4071C182.37 58.0616 182.317 60.7918 181.478 62.9597C181.367 63.2445 181.242 63.5421 181.286 63.845C181.329 64.148 181.554 64.4237 181.765 64.665L182.656 65.6719C180.549 66.1816 178.165 65.0786 177.184 63.143C176.882 62.5443 176.681 61.8549 176.164 61.4286C175.7 61.0476 175.078 60.9569 174.5 60.7864C172.596 60.2204 171 58.477 170.94 56.4887C170.911 55.5544 171.203 54.6201 171.071 53.6949C170.997 53.1667 170.788 52.6667 170.464 52.2436C169.967 51.5923 169.216 51.1551 168.81 50.4295C168.124 49.2158 168.645 47.6393 168.151 46.3368C167.999 45.9376 167.695 45.5385 167.27 45.5077C166.845 45.4769 166.481 45.8306 166.074 45.9884C165.227 46.3186 164.311 45.758 163.603 45.183C162.895 44.6079 162.097 43.9548 161.196 44.0836C160.6 44.167 160.132 44.5734 159.583 44.7857C159.178 44.9417 158.356 45.0814 158.001 44.7385C157.252 44.0473 158.988 42.2568 159.301 41.6109Z" fill="#591D4B"/>
<path opacity="0.1" d="M177.688 62.5443C177.384 61.9456 177.185 61.2563 176.667 60.8317C176.204 60.4508 175.581 60.3583 175.002 60.1877C173.1 59.6235 171.503 57.8801 171.442 55.8918C171.413 54.9576 171.704 54.0215 171.574 53.0963C171.498 52.5715 171.289 52.0749 170.968 51.654C170.468 51.0027 169.717 50.5655 169.313 49.8399C168.628 48.628 169.149 47.0515 168.653 45.7472C168.503 45.3499 168.197 44.9508 167.773 44.9181C167.35 44.8855 166.982 45.2428 166.577 45.4007C165.73 45.7308 164.812 45.1685 164.106 44.5952C163.401 44.0219 162.599 43.367 161.699 43.494C161.104 43.5793 160.633 43.9856 160.087 44.1961C159.681 44.3521 158.858 44.4936 158.503 44.1507C157.757 43.4251 159.493 41.6381 159.804 40.9959C160.063 40.4662 160.192 39.8766 160.503 39.3759C160.519 39.3487 160.537 39.3215 160.555 39.2943C160.323 39.4876 160.122 39.7166 159.96 39.9728C159.65 40.4735 159.522 41.0612 159.263 41.5928C158.95 42.235 157.214 44.0274 157.962 44.7476C158.324 45.0923 159.138 44.9508 159.544 44.7947C160.087 44.5825 160.561 44.1761 161.156 44.0927C162.061 43.9639 162.858 44.6188 163.563 45.192C164.269 45.7653 165.192 46.3277 166.036 45.9975C166.441 45.8397 166.796 45.4841 167.23 45.5168C167.665 45.5494 167.954 45.9467 168.112 46.3458C168.606 47.6484 168.085 49.2249 168.77 50.4385C169.176 51.1515 169.927 51.5978 170.425 52.2527C170.749 52.6758 170.958 53.1758 171.031 53.704C171.163 54.6292 170.872 55.5635 170.901 56.4978C170.96 58.4933 172.557 60.2295 174.461 60.7955C175.035 60.966 175.661 61.0567 176.124 61.4377C176.644 61.864 176.848 62.5534 177.145 63.152C178.126 65.0877 180.509 66.1907 182.616 65.6809L182.196 65.2056C180.37 65.2328 178.522 64.1915 177.688 62.5443Z" fill="black"/>
<path opacity="0.1" d="M165.21 54.2646C164.973 54.6274 164.295 56.4851 163.728 58.1069C163.198 57.9001 162.716 56.5812 162.716 56.5812L165.543 52.5502C165.833 52.9493 165.643 53.6115 165.21 54.2646Z" fill="black"/>
<path d="M165.319 54.1557C165.082 54.5185 164.403 56.3762 163.837 57.9981C163.306 57.7931 162.825 56.4724 162.825 56.4724L165.652 52.4432C165.942 52.8405 165.752 53.5044 165.319 54.1557Z" fill="#DCE7FF"/>
<path d="M148.881 72.689L147.314 67.7345C147.295 67.6765 147.289 67.6154 147.294 67.5547C147.299 67.494 147.316 67.4349 147.344 67.3808C147.371 67.3267 147.41 67.2787 147.456 67.2394C147.503 67.2002 147.557 67.1706 147.614 67.1522C147.731 67.1157 147.857 67.1269 147.966 67.1833C148.074 67.2397 148.156 67.3367 148.194 67.4534L149.761 72.4023L149.605 73.4382L148.881 72.689Z" fill="#BE8B87"/>
<path opacity="0.1" d="M147.463 67.2992C147.58 67.2621 147.706 67.273 147.815 67.3294C147.924 67.3859 148.006 67.4833 148.044 67.6003L149.611 72.5493L149.493 73.3257L149.607 73.4455L149.763 72.4096L148.187 67.4606C148.149 67.344 148.067 67.2469 147.959 67.1905C147.85 67.1341 147.724 67.123 147.607 67.1595C147.509 67.1914 147.425 67.2552 147.367 67.3409C147.397 67.3243 147.43 67.3104 147.463 67.2992Z" fill="white"/>
<path d="M148.882 72.689L149.761 72.4096L149.633 73.2586L149.606 73.4455L149.349 73.177L148.882 72.689Z" fill="#EFC8C4"/>
<path d="M149.348 73.177C149.364 73.1576 149.383 73.1415 149.404 73.1298C149.417 73.1217 149.432 73.1175 149.447 73.1175C149.462 73.1175 149.477 73.1217 149.49 73.1298C149.502 73.1447 149.512 73.1612 149.52 73.1788C149.532 73.1988 149.549 73.2159 149.568 73.2287C149.587 73.2416 149.609 73.25 149.633 73.2532L149.605 73.4346L149.348 73.177Z" fill="#727A9C"/>
<path d="M147.305 69.4943C147.305 69.4943 150.449 69.4761 149.708 70.8168C148.968 72.1574 147.812 72.3189 147.812 72.3189L147.305 69.4943Z" fill="#FFB0B1"/>
<path d="M127.753 9.32831H127.617C122.216 9.32831 117.44 12.1928 114.693 16.4198C111.945 12.1928 107.169 9.32831 101.768 9.32831H101.632C97.5794 9.36702 93.7053 11.0075 90.8521 13.8932C87.9989 16.7789 86.3972 20.6766 86.395 24.7394C86.395 29.7846 88.5995 36.9431 92.898 42.8337C101.088 54.0577 114.693 63.8777 114.693 63.8777C114.693 63.8777 128.298 54.0596 136.486 42.8337C140.786 36.9431 142.988 29.7846 142.988 24.7394C142.986 20.677 141.385 16.7795 138.532 13.8938C135.679 11.0082 131.806 9.3675 127.753 9.32831ZM125.811 43.6972C125.196 43.6948 124.596 43.5061 124.09 43.1558C123.583 42.8055 123.195 42.31 122.975 41.7343H119.746C119.533 41.733 119.326 41.6651 119.154 41.5402C118.982 41.4153 118.853 41.2396 118.785 41.0377L117.793 38.0425L114.655 49.0344C114.594 49.246 114.466 49.432 114.29 49.5645C114.114 49.697 113.901 49.7688 113.681 49.7691H113.618C113.388 49.758 113.17 49.6684 112.998 49.5152C112.827 49.3619 112.713 49.1545 112.676 48.9274L109.442 29.429L107.078 40.9669C107.024 41.1861 106.898 41.3808 106.721 41.5199C106.543 41.6589 106.325 41.7344 106.099 41.7343H101.551C101.415 41.7401 101.279 41.7182 101.151 41.6698C101.023 41.6215 100.907 41.5478 100.808 41.4532C100.71 41.3585 100.631 41.2449 100.578 41.1191C100.524 40.9933 100.497 40.8579 100.497 40.7211C100.497 40.5843 100.524 40.4489 100.578 40.3231C100.631 40.1973 100.71 40.0837 100.808 39.989C100.907 39.8944 101.023 39.8207 101.151 39.7724C101.279 39.724 101.415 39.7021 101.551 39.7079H105.303L108.651 24.1952C108.706 23.9658 108.839 23.7627 109.027 23.6206C109.215 23.4785 109.446 23.4062 109.681 23.4161C109.916 23.4259 110.14 23.5173 110.316 23.6747C110.491 23.832 110.606 24.0455 110.642 24.2786L113.945 44.1689L116.758 34.3344C116.816 34.1273 116.94 33.9447 117.111 33.8139C117.281 33.6831 117.49 33.6112 117.704 33.6088H117.724C117.937 33.6088 118.144 33.6762 118.316 33.8013C118.489 33.9264 118.617 34.1028 118.683 34.3054L120.477 39.7133H122.935C123.11 39.1812 123.428 38.7078 123.854 38.3454C124.28 37.9829 124.798 37.7456 125.35 37.6595C125.903 37.5735 126.468 37.6421 126.984 37.8577C127.5 38.0733 127.946 38.4276 128.274 38.8815C128.601 39.3354 128.797 39.8711 128.841 40.4297C128.884 40.9883 128.772 41.5479 128.518 42.0469C128.263 42.5458 127.877 42.9646 127.4 43.2571C126.923 43.5496 126.375 43.7044 125.816 43.7045L125.811 43.6972Z" fill="#0984E3"/>
</g>
<defs>
<linearGradient id="paint0_linear" x1="64.4918" y1="140.572" x2="64.4918" y2="28.941" gradientUnits="userSpaceOnUse">
<stop stop-color="#808080" stop-opacity="0.25"/>
<stop offset="0.54" stop-color="#808080" stop-opacity="0.12"/>
<stop offset="1" stop-color="#808080" stop-opacity="0.1"/>
</linearGradient>
<linearGradient id="paint1_linear" x1="40399.5" y1="84227.3" x2="40399.5" y2="26926" gradientUnits="userSpaceOnUse">
<stop stop-color="#808080" stop-opacity="0.25"/>
<stop offset="0.54" stop-color="#808080" stop-opacity="0.12"/>
<stop offset="1" stop-color="#808080" stop-opacity="0.1"/>
</linearGradient>
<clipPath id="clip0">
<rect width="200" height="142" fill="white"/>
</clipPath>
</defs>
</svg>
