<svg width="181" height="140" viewBox="0 0 181 140" fill="none" xmlns="http://www.w3.org/2000/svg">
<path d="M163.419 67.0461L160.723 79.1777L158.534 89.0194L156.79 96.8688L154.603 106.711L147.456 138.864L58.8979 97.9219L52.3883 94.9119L44.1485 91.102L37.6366 88.092L29.8044 84.4706L34.2446 78.0073L37.9369 72.6329L42.608 65.8333L46.2993 60.4623L87.8372 0L131.84 39.0342L139.676 45.985L145.924 51.5276L153.761 58.4783L163.419 67.0461Z" fill="#F2F2F2"/>
<path d="M34.6943 102.738C28.7725 99.4348 25.086 94.9255 23.7371 89.3352C22.7355 85.1845 23.0233 80.5138 24.5924 75.4528C25.7556 71.7214 27.4996 68.1968 29.7602 65.009C41.753 48.0251 42.8354 36.9584 41.6316 30.6652C40.3118 23.7649 36.0237 20.8991 35.9805 20.871L36.1656 20.5862C36.2098 20.615 40.6109 23.5473 41.9625 30.5876C42.7417 34.6464 42.3751 39.2745 40.873 44.3432C39.0035 50.6515 35.3579 57.6704 30.0376 65.205C27.7976 68.3637 26.0694 71.856 24.9167 75.5533C22.3432 83.854 21.9791 95.2568 34.8596 102.441L34.6943 102.738Z" fill="#2F2E41"/>
<path d="M37.5423 102.738C43.4641 99.4348 47.1506 94.9255 48.4995 89.3352C49.5011 85.1845 49.2133 80.5138 47.6442 75.4528C46.4809 71.7214 44.7369 68.1968 42.4763 65.009C30.4836 48.0251 29.4012 36.9584 30.605 30.6652C31.9248 23.7649 36.2129 20.8991 36.2561 20.871L36.071 20.5862C36.0267 20.615 31.6256 23.5473 30.274 30.5876C29.4949 34.6464 29.8614 39.2745 31.3636 44.3432C33.2331 50.6515 36.8787 57.6704 42.1989 65.205C44.4389 68.3637 46.1671 71.856 47.3198 75.5533C49.8934 83.854 50.2575 95.2568 37.377 102.441L37.5423 102.738Z" fill="#2F2E41"/>
<path d="M166.611 88.4693C160.689 85.1664 157.003 80.6571 155.654 75.0668C154.652 70.9161 154.94 66.2454 156.509 61.1844C157.672 57.453 159.416 53.9284 161.677 50.7406C173.67 33.7567 174.752 22.69 173.548 16.3968C172.229 9.49652 167.94 6.63076 167.897 6.60264L168.082 6.31783C168.127 6.3466 172.528 9.27896 173.879 16.3193C174.658 20.378 174.292 25.0061 172.79 30.0748C170.92 36.3831 167.275 43.402 161.954 50.9366C159.714 54.0954 157.986 57.5877 156.833 61.2849C154.26 69.5856 153.896 80.9884 166.776 88.1727L166.611 88.4693Z" fill="#2F2E41"/>
<path d="M169.459 88.4693C175.381 85.1664 179.067 80.6572 180.416 75.0668C181.418 70.9161 181.13 66.2454 179.561 61.1844C178.397 57.453 176.653 53.9284 174.393 50.7406C162.4 33.7567 161.318 22.69 162.521 16.3968C163.841 9.49654 168.129 6.63077 168.173 6.60266L167.987 6.31784C167.943 6.34662 163.542 9.27897 162.191 16.3193C161.411 20.378 161.778 25.0061 163.28 30.0749C165.15 36.3831 168.795 43.402 174.115 50.9367C176.355 54.0954 178.084 57.5877 179.236 61.285C181.81 69.5856 182.174 80.9884 169.293 88.1727L169.459 88.4693Z" fill="#2F2E41"/>
<path d="M79.4242 50.9491C74.9748 43.4274 66.1722 43.0769 66.1722 43.0769C66.1722 43.0769 57.5946 41.9794 52.0921 53.4351C46.9633 64.1127 39.8849 74.4222 50.9525 76.9218L52.9516 70.6965L54.1897 77.3853C55.7655 77.4987 57.3463 77.5257 58.9251 77.4662C70.7776 77.0834 82.0653 77.5782 81.7018 73.3229C81.2187 67.6661 83.7053 58.1866 79.4242 50.9491Z" fill="#2F2E41"/>
<path d="M61.1616 66.6915C62.6948 70.0845 63.6615 74.129 64.2388 78.6215L76.5474 77.8518C73.7176 73.8399 72.778 69.235 73.8549 63.9976L61.1616 66.6915Z" fill="#FFB8B8"/>
<path opacity="0.2" d="M61.1616 66.6915C62.6948 70.0845 63.6615 74.129 64.2388 78.6215L76.5474 77.8518C73.7176 73.8399 72.778 69.235 73.8549 63.9976L61.1616 66.6915Z" fill="black"/>
<path d="M4.05294 131.294C4.05294 131.294 -2.31756 134.708 0.915131 137.622C4.14782 140.537 8.41805 133.764 8.41805 133.764L4.05294 131.294Z" fill="#FFB8B8"/>
<path d="M81.9327 121.338L81.8333 126.002L81.6209 136.08V136.082L81.5591 139H40.8208L42.4765 129.802L42.4782 129.795L43.9607 121.563L44.6223 117.876V117.874L78.0866 113.256L81.9327 121.338Z" fill="#2F2E41"/>
<path d="M81.9324 121.339L81.8324 126.003C69.993 125.699 51.6416 122.839 43.9602 121.562L44.6218 117.875L78.086 113.257L81.9324 121.339Z" fill="#3F3D56"/>
<path d="M67.1237 69.9626C72.4346 69.9626 76.7399 65.6552 76.7399 60.3417C76.7399 55.0281 72.4346 50.7207 67.1237 50.7207C61.8129 50.7207 57.5076 55.0281 57.5076 60.3417C57.5076 65.6552 61.8129 69.9626 67.1237 69.9626Z" fill="#FFB8B8"/>
<path d="M85.5866 126.534C85.5866 126.534 86.7405 136.924 79.8169 136.155L78.663 125.764L72.5086 119.607L55.1996 119.222L42.5063 131.152C42.5063 131.152 42.1216 118.837 43.6602 117.683C45.1988 116.528 48.6606 113.834 48.6606 113.834V111.91L38.2751 90.7439C38.2751 90.7439 44.4295 78.0442 49.4299 77.6594L55.9689 77.2745C55.9689 77.2745 58.2767 76.12 58.2767 75.7352C58.2767 75.3503 57.8921 72.2716 59.8153 73.0413C59.8153 73.0413 59.9884 69.0929 62.0155 70.2974C62.0155 70.2974 68.3968 75.3003 74.8742 70.5168C74.8742 70.5168 77.8937 69.9626 77.509 71.502C77.1244 73.0413 77.509 74.1958 78.2783 74.1958C79.0476 74.1958 82.5094 75.3503 82.5094 76.12C82.5094 76.2855 82.7595 77.8787 83.1518 80.2763V80.2801C84.5788 89.0198 87.8945 108.446 87.8945 108.446C87.8945 108.446 91.3563 113.449 85.5866 126.534Z" fill="#0984E3"/>
<path d="M40.9676 88.8197L38.2751 90.7439L13.6578 122.301L0.579834 132.691C0.579834 132.691 7.88811 131.537 6.34953 137.694L51.3531 111.91L40.9676 88.8197Z" fill="#0984E3"/>
<path d="M83.1518 80.2763V80.2801C82.6403 83.2895 65.9697 82.6623 63.6618 82.6623C61.3539 82.6623 59.4307 82.2774 57.1228 80.7381C54.815 79.1987 55.9689 77.2745 55.9689 77.2745C55.9689 77.2745 57.934 75.7771 57.934 75.3922C57.934 75.0074 57.5494 71.9287 59.4726 72.6984C59.4726 72.6984 59.6456 68.7499 61.6727 69.9545C61.6727 69.9545 68.3968 75.3003 74.8743 70.5168C74.8743 70.5168 77.8937 69.9626 77.5091 71.502C77.1244 73.0413 77.5091 74.1958 78.2784 74.1958C79.0477 74.1958 82.5095 75.3503 82.5095 76.12C82.5095 76.2855 82.7595 77.8787 83.1518 80.2763Z" fill="#3F3D56"/>
<path d="M81.1633 65.9218C81.1633 65.9218 78.0861 59.3796 75.0089 62.4583C71.9317 65.537 78.4707 70.1551 78.4707 70.1551L81.1633 65.9218Z" fill="#FFB8B8"/>
<path d="M81.1632 64.3825C81.1632 64.3825 76.4116 70.3904 74.9409 70.85C74.9409 70.85 79.24 87.8576 84.625 92.4757L87.7022 108.254C87.7022 108.254 100.78 102.866 97.703 94.015C97.6722 93.9265 97.6416 93.8385 97.6111 93.7511C95.0418 86.3798 91.4959 79.3867 87.0683 72.9586L81.1632 64.3825Z" fill="#0984E3"/>
<path opacity="0.2" d="M78.624 82.2017L88.0869 108.254L84.6251 92.4756L78.624 82.2017Z" fill="black"/>
<path d="M77.4571 50.224L68.7605 45.6665L56.751 47.5309L54.2661 58.5106L60.4514 58.2726L62.1794 54.2387V58.2062L65.0334 58.0963L66.6899 51.6742L67.7252 58.5106L77.8712 58.3035L77.4571 50.224Z" fill="#2F2E41"/>
<path d="M159.612 109.448L164.546 127.058C164.546 127.058 163.529 142.656 168.274 139.604C173.13 136.481 171.324 123.328 171.324 123.328L168.48 107.53L159.612 109.448Z" fill="#A0616A"/>
<path d="M162.249 60.0486L166.323 64.1253V83.5495C166.323 83.5495 168.72 87.1465 168.241 88.1057C167.761 89.065 167.282 89.065 167.761 89.7844C168.241 90.5038 168.72 90.9834 168.241 91.463C167.761 91.9426 167.761 93.1416 168.241 93.6212C168.72 94.1008 169.679 94.8203 168.96 95.5397C168.241 96.2591 167.282 95.7795 168.241 98.4173C169.199 101.055 170.877 101.775 170.398 102.734C169.918 103.693 169.918 106.091 169.918 106.091L159.612 107.53L157.455 80.432L162.249 60.0486Z" fill="#D0CDE1"/>
<path d="M170.398 105.851L158.414 106.331L158.893 111.367L169.439 109.448L170.398 105.851Z" fill="#3F3D56"/>
<path d="M137.441 34.9891L136.003 49.3773L150.624 51.5355L151.702 43.2624L152.781 34.9891H137.441Z" fill="#A0616A"/>
<path opacity="0.1" d="M137.441 34.9112L136.003 49.2995L150.624 51.4577L151.702 43.1845L152.781 34.9112H137.441Z" fill="black"/>
<path d="M105.683 103.453L113.832 120.959C113.832 120.959 115.27 129.112 117.428 129.352C119.585 129.592 121.742 120.959 121.742 120.959L118.866 116.403L115.51 103.453H105.683Z" fill="#A0616A"/>
<path d="M161.467 139.17H115.395C115.76 133.393 115.99 129.831 115.99 129.831L116.602 128.868L119.569 124.203L121.687 120.873L122.426 119.711L122.7 119.28L125.602 118.75L155.537 113.285C156.032 115.504 156.733 117.671 157.63 119.759C157.834 120.223 158.053 120.688 158.288 121.148C159.04 122.617 159.959 124.01 161.051 125.035C161.299 125.268 161.479 125.891 161.596 126.848C161.884 129.192 161.802 133.551 161.467 139.17Z" fill="#2F2E41"/>
<path d="M145.471 39.6653C151.825 39.6653 156.976 34.5118 156.976 28.1547C156.976 21.7975 151.825 16.6441 145.471 16.6441C139.117 16.6441 133.966 21.7975 133.966 28.1547C133.966 34.5118 139.117 39.6653 145.471 39.6653Z" fill="#A0616A"/>
<path d="M119.824 51.6555L118.147 50.6963C118.147 50.6963 110.716 55.7322 108.32 67.003C105.923 78.2738 104.245 81.1514 104.245 81.1514C104.245 81.1514 101.848 81.631 103.526 83.3097C105.204 84.9883 105.204 84.7485 103.766 85.7077C102.327 86.6669 101.369 84.7485 102.327 86.6669C103.286 88.5853 104.485 88.1057 103.526 89.3047C102.567 90.5038 100.889 90.5038 101.848 91.463C102.807 92.4222 100.889 94.5804 102.088 95.5397C103.286 96.4989 103.766 96.7387 103.766 98.4173C103.758 99.397 103.92 100.371 104.245 101.295H116.708C116.708 101.295 114.312 96.7387 115.031 95.7795C115.75 94.8202 115.989 93.861 115.51 93.3814C115.031 92.9018 113.593 93.861 115.031 92.662C116.469 91.463 116.948 92.1824 116.469 90.7436C115.989 89.3048 115.031 90.0242 115.989 89.3047C116.948 88.5853 117.667 88.8251 117.188 88.1057C116.708 87.3863 115.75 87.3863 116.708 86.9067C117.667 86.4271 118.386 86.9067 118.147 85.7077C117.907 84.5087 117.667 84.9883 118.147 84.5087C118.626 84.0291 123.659 67.7224 123.659 67.2428C123.659 66.7632 119.824 51.6555 119.824 51.6555Z" fill="#D0CDE1"/>
<path d="M117.428 100.336L102.328 101.295L106.163 104.892L116.709 105.132L117.428 100.336Z" fill="#3F3D56"/>
<path d="M121.742 118.321L118.626 124.076C118.626 124.076 127.974 125.275 131.329 126.474C134.685 127.673 143.313 129.352 143.313 129.352L145.471 120.959L121.742 118.321Z" fill="#3F3D56"/>
<path d="M149.066 120.959L151.703 128.872L162.249 126.714L161.05 119.28L149.066 120.959Z" fill="#3F3D56"/>
<path d="M153.38 43.5021C153.38 43.5021 152.661 43.0225 150.983 43.9818C149.306 44.941 143.793 45.4206 141.156 42.5429C138.52 39.6653 136.602 37.2672 135.883 37.7468C135.164 38.2264 134.685 43.7419 134.685 43.7419L132.288 45.6604L118.147 50.6963L119.345 83.0698L121.502 90.5038C121.502 90.5038 119.825 96.2591 121.982 99.6163C124.139 102.974 120.783 104.173 120.783 104.173C120.783 104.173 120.064 105.132 120.544 107.53C121.023 109.928 120.064 118.801 120.064 118.801C120.064 118.801 140.437 127.913 161.769 120L159.372 110.887L158.174 90.5038C158.174 90.5038 159.372 87.1465 159.133 85.7077C158.893 84.2689 166.323 64.1253 166.323 64.1253C166.323 64.1253 165.125 54.0535 158.893 51.8953C152.661 49.7371 151.703 47.5788 151.703 47.5788C151.703 47.5788 154.579 44.4614 153.38 43.5021Z" fill="#D0CDE1"/>
<path d="M133.886 29.6292C133.886 29.6292 132.691 27.8362 133.151 25.9053C133.425 24.8091 133.534 23.6778 133.473 22.5493C133.473 22.5493 134.437 19.4231 135.402 17.6761C136.367 15.9291 135.908 15.1935 138.941 14.6418C141.973 14.0901 140.733 10.1364 148.728 14.4119C148.998 14.7888 149.373 15.0772 149.807 15.2408C150.24 15.4045 150.712 15.436 151.163 15.3314C152.818 15.0096 153.415 17.3083 153.415 17.3083C153.415 17.3083 154.518 16.6646 154.931 17.5841C155.345 18.5036 158.294 17.0323 158.294 23.2387C158.294 29.4452 154.938 34.9891 154.938 34.9891C154.938 34.9891 155.184 24.5491 149.716 23.4917C144.248 22.4343 138.366 19.3541 136.942 23.3078C135.517 27.2616 133.886 29.6292 133.886 29.6292Z" fill="#2F2E41"/>
<path d="M155.058 32.1114C155.654 32.1114 156.137 31.4673 156.137 30.6726C156.137 29.878 155.654 29.2338 155.058 29.2338C154.462 29.2338 153.979 29.878 153.979 30.6726C153.979 31.4673 154.462 32.1114 155.058 32.1114Z" fill="#A0616A"/>
</svg>
